<?xml version="1.0" encoding="UTF-8" standalone="no"?>
<!-- Created with Fritzing (http://www.fritzing.org/) -->

<svg
   xmlns:dc="http://purl.org/dc/elements/1.1/"
   xmlns:cc="http://creativecommons.org/ns#"
   xmlns:rdf="http://www.w3.org/1999/02/22-rdf-syntax-ns#"
   xmlns:svg="http://www.w3.org/2000/svg"
   xmlns="http://www.w3.org/2000/svg"
   xmlns:sodipodi="http://sodipodi.sourceforge.net/DTD/sodipodi-0.dtd"
   xmlns:inkscape="http://www.inkscape.org/namespaces/inkscape"
   version="1.2"
   x="0in"
   y="0in"
   width="217.90891"
   height="162.427"
   viewBox="0 0 174.327 129.94159"
   id="svg2"
   inkscape:version="0.91 r13725"
   sodipodi:docname="Untitled Sketch 4_ブレッドボード.svg">
  <metadata
     id="metadata131">
    <rdf:RDF>
      <cc:Work
         rdf:about="">
        <dc:format>image/svg+xml</dc:format>
        <dc:type
           rdf:resource="http://purl.org/dc/dcmitype/StillImage" />
        <dc:title></dc:title>
      </cc:Work>
    </rdf:RDF>
  </metadata>
  <defs
     id="defs129" />
  <sodipodi:namedview
     pagecolor="#ffffff"
     bordercolor="#666666"
     borderopacity="1"
     objecttolerance="10"
     gridtolerance="10"
     guidetolerance="10"
     inkscape:pageopacity="0"
     inkscape:pageshadow="2"
     inkscape:window-width="1740"
     inkscape:window-height="1096"
     id="namedview127"
     showgrid="false"
     units="px"
     inkscape:zoom="2.1582075"
     inkscape:cx="122.99694"
     inkscape:cy="149.50407"
     inkscape:window-x="0"
     inkscape:window-y="0"
     inkscape:window-maximized="0"
     inkscape:current-layer="svg2" />
  <g
     id="connector0leg"
     y1="40.159"
     y2="40.159"
     x1="167.161"
     x2="172.827"
     style="fill:none;stroke:#000000;stroke-width:3;stroke-linecap:round"
     transform="translate(0,42.461582)" />
  <g
     id="connector1leg"
     y1="53.798"
     y2="53.798"
     x1="167.161"
     x2="172.827"
     style="fill:none;stroke:#ff0000;stroke-width:3;stroke-linecap:round"
     transform="translate(0,42.461582)" />
  <g
     id="g4515"
     transform="translate(0,42.461582)">
    <path
       style="fill:#1a1a1a"
       inkscape:connector-curvature="0"
       id="path15"
       d="m 161.46,84.135048 c 0,1.974005 -1.199,3.344972 -2.252,3.344972 L 2.252,87.47999 C 0.761,87.47999 0,86.357038 0,84.135048 L 0,-39.118161 c 0,-1.76458 0.928,-3.343486 2.252,-3.343486 l 156.956,0 c 1.22,0 2.252,1.33086 2.252,3.344972 l 0,123.251723 z" />
    <path
       style="fill:none;stroke:#c9c9c9;stroke-width:1"
       inkscape:connector-curvature="0"
       id="path17"
       d="m 2.346,49.064804 0,29.179496 c 0,0.774973 0.425,1.41695 0.945,1.41695 0.52,0 0.942,-0.641978 0.942,-1.41695 l 1,-25.6261 c 0,-0.778973 0.428,-1.41695 0.945,-1.41695 0.517,0 0.945,0.637978 0.945,1.41695 l 1,19.8533 c 0,0.778973 0.426,1.41795 0.942,1.41795 0.521,0 0.944,-0.638978 0.944,-1.41795 l 0,-15.5995"
       sodipodi:nodetypes="cssccsccssc" />
    <rect
       transform="scale(1,-1)"
       style="fill:#c9c9c9"
       id="rect23"
       width="3.789"
       height="15.7825"
       y="-31.317871"
       x="1.865" />
    <path
       d="m 8.499,6.82077 c 0,-2.33792 1.912,-4.25185 4.252,-4.25185 l 133.51,0 c 2.339,0 4.252,1.91393 4.252,4.25185 l 0,31.1839 c 0,2.33792 -1.913,4.25185 -4.252,4.25185 l -133.51,5e-5 c -2.34,0 -4.252,-1.91393 -4.252,-4.25185 l 0,-31.18395 z"
       id="path65"
       inkscape:connector-curvature="0"
       style="fill:#353535" />
    <path
       enable-background="new    "
       d="m 15.063,40.6256 c -1.76,0 -4.006,-1.62994 -4.006,-3.56188 l 0,-8.92472 c 0,1.93393 2.246,4.96483 4.006,4.96483 l 132.544,0 c 1.761,0 4.006,-3.0309 4.006,-4.96483 l 0,8.92569 c 0,1.93393 -2.245,3.56188 -4.006,3.56188 l -132.544,3e-5 z"
       id="path33"
       inkscape:connector-curvature="0"
       style="opacity:0.35" />
    <path
       d="m 49.664,42.25357 -36.913,0 c -2.34,0 -4.252,-1.91393 -4.252,-4.25185 l 0,-31.18395 c 0,-2.33792 1.912,-4.25185 4.252,-4.25185 l 36.913,0 0,39.68765 z"
       id="path67"
       inkscape:connector-curvature="0"
       style="fill:#ce925d" />
    <g
       id="g39">
      <g
         id="g41">
        <path
           d="m 38.798,19.4223 -0.564,1.69994 -1.787,0 2.986,-8.99169 2.543,0 3.046,8.99169 -1.751,0 -0.587,-1.69994 -3.886,0 z m 1.954,-5.9718 -0.024,0 -1.535,4.66584 3.106,0 -1.547,-4.66584 z"
           id="path43"
           inkscape:connector-curvature="0"
           style="fill:#e0e0e0" />
        <path
           d="m 47.306,19.4223 -0.564,1.69994 -1.784,0 2.983,-8.99169 2.543,0 3.046,8.99169 -1.751,0 -0.587,-1.69994 -3.886,0 z m 1.954,-5.9718 -0.024,0 -1.536,4.6659 3.106,0 -1.546,-4.6659 z"
           id="path45"
           inkscape:connector-curvature="0"
           style="fill:#e0e0e0" />
        <path
           d="m 58.49,21.1253 0,-8.99169 4.477,0 c 1.763,0 2.647,0.356988 2.647,2.33892 0,1.02796 -0.189,1.72694 -1.28,1.98793 l 0,0.051 c 1.259,0.143995 1.499,0.971967 1.499,2.10793 0,1.99093 -0.815,2.50691 -2.711,2.50691 l -4.632,-9.98e-4 0,0 z m 1.727,-5.2278 2.479,0 c 0.975,0 1.188,-0.29999 1.188,-1.25896 0,-0.95897 -0.384,-1.03196 -1.235,-1.03196 l -2.435,0 0.003,2.29092 0,0 z m 0,3.7528 2.363,0 c 1.028,0 1.521,-0.072 1.521,-1.17496 0,-0.982966 -0.216,-1.27096 -1.232,-1.27096 l -2.65,0 -0.002,2.44592 0,0 z"
           id="path47"
           inkscape:connector-curvature="0"
           style="fill:#e0e0e0" />
        <path
           d="m 71.172,20.3333 -0.036,0 c -0.3,0.841971 -1.223,0.86297 -1.955,0.86297 -1.427,0 -2.351,-0.29999 -2.351,-2.00293 0,-1.51095 0.792,-1.93093 2.351,-1.93093 0.768,0 1.523,0.012 1.883,0.719975 l 0.048,0 0,-0.815972 c 0,-1.01897 -0.084,-1.37895 -1.343,-1.37895 -0.66,0 -1.188,0.062 -1.188,0.87497 l -1.514,0 c 0,-1.83494 1.263,-1.90393 2.699,-1.90393 2.018,0 2.854,0.311989 2.854,2.42292 l 0,3.94286 -1.514,0 0.066,-0.790983 z m -2.831,-1.139 c 0,0.88797 0.357,0.971967 1.379,0.971967 0.803,0 1.391,-0.069 1.391,-0.971967 0,-0.87497 -0.646,-0.898969 -1.391,-0.898969 C 68.952,18.2944 68.341,18.2944 68.341,19.1943 Z"
           id="path49"
           inkscape:connector-curvature="0"
           style="fill:#e0e0e0" />
        <path
           d="m 73.358,14.8295 0.792,0 0,-1.42695 1.512,0 0,1.42695 2.41,0 0,1.15096 -2.41,0 0,3.22589 c 0.014,0.57598 0.014,0.838971 0.646,0.838971 0.852,0 0.756,-0.670977 0.756,-1.32795 l 1.331,0 c 0.024,1.90393 -0.456,2.47891 -2.087,2.47891 -1.655,0 -2.159,-0.383987 -2.159,-1.97893 l 0,-3.237851 -0.792,0 0.001,-1.15 0,0 z"
           id="path51"
           inkscape:connector-curvature="0"
           style="fill:#e0e0e0" />
        <path
           d="m 78.458,14.8295 0.792,0 0,-1.42695 1.511,0 0,1.42695 2.411,0 0,1.15096 -2.411,0 0,3.22589 c 0.012,0.57598 0.012,0.838971 0.646,0.838971 0.854,0 0.757,-0.670977 0.757,-1.32795 l 1.332,0 c 0.022,1.90393 -0.457,2.47891 -2.089,2.47891 -1.652,0 -2.156,-0.383987 -2.156,-1.97893 l 0,-3.237851 -0.792,0 0,-1.15 -0.001,0 z"
           id="path53"
           inkscape:connector-curvature="0"
           style="fill:#e0e0e0" />
        <path
           d="m 89.927,19.1233 c 0,1.97893 -1.141,2.07493 -2.938,2.07493 -2.411,0 -2.899,-0.767974 -2.899,-3.20189 0,-2.25492 0.357,-3.23489 2.899,-3.23489 2.593,0 2.938,0.755974 2.938,3.50188 l -4.33,0 c 0,1.35395 0.036,1.78694 1.391,1.78694 0.84,0 1.43,0.012 1.43,-0.925968 l 1.509,-0.001 0,0 z m -1.512,-1.8229 c 0,-1.29496 -0.192,-1.39495 -1.43,-1.39495 -1.308,0 -1.391,0.275991 -1.391,1.39495 l 2.821,0 z"
           id="path55"
           inkscape:connector-curvature="0"
           style="fill:#e0e0e0" />
        <path
           d="m 92.532,14.8295 -0.032,0.828 0.06,0 c 0.3,-0.695976 0.948,-0.896969 1.679,-0.896969 1.332,0 1.655,0.791973 1.655,1.97893 l 0,0.503983 -1.415,0 0,-0.323989 c 0,-0.635978 -0.061,-1.00797 -0.768,-1.00797 -0.899,0 -1.163,0.518982 -1.142,1.33195 l 0,3.88587 -1.512,0 0,-6.29578 1.475,-0.004 0,0 z"
           id="path57"
           inkscape:connector-curvature="0"
           style="fill:#e0e0e0" />
        <path
           d="m 100.413,21.3783 c -0.351,1.42695 -0.639,2.53891 -2.398,2.53891 -0.216,0 -0.432,-0.033 -0.648,-0.048 l 0,-1.13996 c 0.108,0.012 0.22,0.036 0.324,0.036 0.947,0 1.092,-0.911969 1.227,-1.64594 l -0.731,0 -2.075,-6.29578 1.562,0 1.595,5.36082 0.022,0 1.225,-5.36082 1.535,0 -1.638,6.55477 z"
           id="path59"
           inkscape:connector-curvature="0"
           style="fill:#e0e0e0" />
      </g>
    </g>
    <path
       enable-background="new    "
       d="m 148.381,14.2885 c 0,1.41695 -1.54,2.56591 -3.44,2.56591 l -127.326,-1e-5 c -1.897,0 -3.438,-1.04896 -3.438,-2.46692 l 0,-7.73571 c 0,-1.41795 1.54,-2.66791 3.438,-2.66791 l 127.325,0 c 1.9,0 3.44,1.14996 3.44,2.56791 l 0,7.73673 z"
       id="path61"
       inkscape:connector-curvature="0"
       style="opacity:0.35;fill:#ffffff" />
    <path
       d="m 8.618,23.13271 c 0,8.8887 0.34,16.0924 0.759,16.0924 0.419,0 0.419,-32.1839 0,-32.1839 -0.419,0 -0.759,7.2048 -0.759,16.0915"
       id="path71"
       inkscape:connector-curvature="0"
       style="fill:#b2b2b2" />
    <path
       d="m 8.901,17.18737 c 0.278,0 0.278,11.8916 0,11.8916 l 0.008,-0.001 c 0,-0.732975 -0.594,-1.32695 -1.325,-1.32695 l -0.603,5e-5 c -0.729,0 -1.327,-0.59698 -1.327,-1.32795 l 0,-6.57677 c 0,-0.730975 0.598,-1.32795 1.327,-1.32795 l 0.603,0 c 0.731,0 1.325,-0.59398 1.325,-1.32795 l -0.008,-0.0031 0,0 z"
       id="path73"
       inkscape:connector-curvature="0"
       style="fill:#7c7c7c" />
    <g
       id="g4445">
      <path
         style="fill:#353535"
         inkscape:connector-curvature="0"
         id="path29"
         d="m 152.505,49.82627 c 0,-2.34092 -1.913,-4.25185 -4.252,-4.25185 l -133.512,-5e-5 c -2.339,0 -4.252,1.91093 -4.252,4.25185 l 0,31.18098 c 0,2.33792 1.913,4.25185 4.252,4.25185 l 133.513,0 c 2.339,0 4.252,-1.91393 4.252,-4.25185 l -0.001,-31.18093 0,0 z" />
      <path
         style="fill:#ce925d"
         inkscape:connector-curvature="0"
         id="path31"
         d="m 111.624,85.19306 36.913,0 c 2.339,0 4.252,-1.91093 4.252,-4.25185 l 0,-31.1879 c 0,-2.33792 -1.913,-4.25185 -4.252,-4.25185 l -36.913,0 0,39.6916 z" />
      <path
         style="fill:#b2b2b2"
         inkscape:connector-curvature="0"
         id="path35"
         d="m 152.385,65.67977 c 0,-8.8887 -0.338,-16.0924 -0.757,-16.0924 -0.419,0 -0.419,32.1839 0,32.1839 0.419,0 0.757,-7.2048 0.757,-16.0915" />
      <path
         style="fill:#7c7c7c"
         inkscape:connector-curvature="0"
         id="path37"
         d="m 152.102,71.62512 c -0.277,0 -0.277,-11.8916 0,-11.8916 l -0.008,0.001 c 0,0.732975 0.594,1.32695 1.328,1.32695 l 0.6,0 c 0.732,0 1.327,0.59398 1.327,1.32795 l 0,6.57577 c 0,0.729975 -0.595,1.32795 -1.327,1.32795 l -0.6,0 c -0.734,0 -1.328,0.59398 -1.328,1.32595 l 0.008,0.006 0,0 z" />
      <path
         style="opacity:0.35"
         inkscape:connector-curvature="0"
         id="path69"
         d="m 145.94,83.6321 c 1.76,0 4.006,-1.63294 4.006,-3.56288 l 0,-8.92569 c 0,1.93393 -2.246,4.96483 -4.006,4.96483 l -132.545,4e-5 c -1.76,0 -4.006,-3.0309 -4.006,-4.96483 l 0,8.92569 c 0,1.93393 2.246,3.56288 4.006,3.56288 l 132.545,-4e-5 z"
         enable-background="new    " />
      <g
         id="g75">
        <g
           id="g77">
          <path
             style="fill:#e0e0e0"
             inkscape:connector-curvature="0"
             id="path79"
             d="m 123.065,65.8337 0.564,-1.70094 1.787,0 -2.986,8.99269 -2.543,0 -3.046,-8.99269 1.751,0 0.588,1.70094 3.885,0 z m -1.954,5.9728 0.024,0 1.535,-4.66484 -3.107,0 1.548,4.66484 z" />
          <path
             style="fill:#e0e0e0"
             inkscape:connector-curvature="0"
             id="path81"
             d="m 114.557,65.8337 0.564,-1.70094 1.787,0 -2.986,8.99269 -2.543,0 -3.046,-8.99269 1.751,0 0.588,1.70094 3.885,0 z m -1.954,5.9728 0.024,0 1.535,-4.66484 -3.107,0 1.548,4.66484 z" />
          <path
             style="fill:#e0e0e0"
             inkscape:connector-curvature="0"
             id="path83"
             d="m 103.374,64.1298 0,8.99269 -4.478,0 c -1.763,0 -2.647,-0.355988 -2.647,-2.33892 0,-1.02796 0.189,-1.72794 1.28,-1.98793 l 0,-0.05 c -1.259,-0.144995 -1.497,-0.972967 -1.497,-2.10793 0,-1.99193 0.813,-2.50691 2.711,-2.50691 l 4.631,-2e-6 0,-0.001 z m -1.728,1.476 -2.362,0 c -1.028,0 -1.521,0.072 -1.521,1.17496 0,0.982966 0.216,1.27096 1.235,1.27096 l 2.647,0 0,-2.44592 z m 0,3.7538 -2.481,0 c -0.975,0 -1.188,0.29899 -1.188,1.25896 0,0.95997 0.384,1.03196 1.235,1.03196 l 2.435,0 0,-2.29092 z" />
          <path
             style="fill:#e0e0e0"
             inkscape:connector-curvature="0"
             id="path85"
             d="m 90.692,64.9218 0.036,0 c 0.299,-0.842971 1.222,-0.86397 1.955,-0.86397 1.428,0 2.352,0.29899 2.352,2.00193 0,1.51195 -0.791,1.93193 -2.352,1.93193 -0.768,0 -1.523,-0.012 -1.882,-0.720975 l -0.048,0 0,0.815972 c 0,1.01997 0.084,1.37895 1.342,1.37895 0.66,0 1.188,-0.062 1.188,-0.87497 l 1.515,0 c 0,1.83394 -1.26,1.90293 -2.699,1.90293 -2.014,0 -2.853,-0.311989 -2.853,-2.42192 l 0,-3.94386 1.511,0 -0.065,0.793983 z m 2.83,1.1389 c 0,-0.88697 -0.356,-0.970967 -1.379,-0.970967 -0.804,0 -1.391,0.068 -1.391,0.970967 0,0.87597 0.645,0.899969 1.391,0.899969 0.768,0.001 1.379,0.001 1.379,-0.899969 z" />
          <path
             style="fill:#e0e0e0"
             inkscape:connector-curvature="0"
             id="path87"
             d="m 88.506,70.4266 -0.792,0 0,1.42795 -1.512,0 0,-1.42795 -2.41,0 0,-1.14996 2.41,0 0,-3.22689 c -0.014,-0.57698 -0.014,-0.842971 -0.646,-0.842971 -0.852,0 -0.756,0.674977 -0.756,1.33295 l -1.331,0 c -0.024,-1.90493 0.456,-2.48091 2.087,-2.48091 1.655,0 2.159,0.382987 2.159,1.97893 l 0,3.23789 0.792,0 -0.001,1.150961 0,0 z" />
          <path
             style="fill:#e0e0e0"
             inkscape:connector-curvature="0"
             id="path89"
             d="m 83.406,70.4266 -0.792,0 0,1.42795 -1.511,0 0,-1.42795 -2.411,0 0,-1.14996 2.411,0 0,-3.22689 c -0.012,-0.57698 -0.012,-0.842971 -0.646,-0.842971 -0.854,0 -0.757,0.674977 -0.757,1.33295 l -1.332,0 c -0.022,-1.90493 0.457,-2.48091 2.089,-2.48091 1.652,0 2.156,0.382987 2.156,1.97893 l 0,3.23789 0.792,0 0,1.150961 0.001,0 z" />
          <path
             style="fill:#e0e0e0"
             inkscape:connector-curvature="0"
             id="path91"
             d="m 71.937,66.1337 c 0,-1.97993 1.141,-2.07593 2.938,-2.07593 2.411,0 2.899,0.767974 2.899,3.20289 0,2.25592 -0.357,3.23489 -2.899,3.23489 -2.593,0 -2.938,-0.755974 -2.938,-3.50188 l 4.33,0 c 0,-1.35395 -0.036,-1.78794 -1.391,-1.78794 -0.84,0 -1.43,-0.012 -1.43,0.926968 l -1.509,2e-6 0,0.001 z m 1.511,1.822 c 0,1.29596 0.192,1.39595 1.43,1.39595 1.308,0 1.391,-0.275991 1.391,-1.39595 l -2.821,0 z" />
          <path
             style="fill:#e0e0e0"
             inkscape:connector-curvature="0"
             id="path93"
             d="m 69.331,70.4266 0.033,-0.826972 -0.06,0 c -0.3,0.695976 -0.948,0.895969 -1.679,0.895969 -1.331,0 -1.655,-0.790973 -1.655,-1.97893 l 0,-0.503983 1.415,0 0,0.323989 c 0,0.634978 0.06,1.00797 0.768,1.00797 0.899,0 1.163,-0.519982 1.142,-1.33195 l 0,-3.88587 1.511,0 0,6.29578 -1.475,0.004 0,0 z" />
          <path
             style="fill:#e0e0e0"
             inkscape:connector-curvature="0"
             id="path95"
             d="m 61.45,63.8768 c 0.351,-1.42895 0.639,-2.54091 2.398,-2.54091 0.216,0 0.432,0.033 0.648,0.048 l 0,1.13996 c -0.108,-0.012 -0.219,-0.036 -0.324,-0.036 -0.948,0 -1.092,0.911969 -1.227,1.64594 l 0.731,0 2.075,6.29578 -1.562,0 -1.595,-5.36082 -0.023,0 -1.225,5.36082 -1.535,0 1.639,-6.55277 z" />
        </g>
      </g>
      <path
         style="opacity:0.35;fill:#ffffff"
         inkscape:connector-curvature="0"
         id="path97"
         d="m 12.623,57.293 c 0,1.41995 1.54,2.56591 3.438,2.56591 l 127.326,0 c 1.897,0 3.438,-1.04896 3.438,-2.46692 l 0,-7.73573 c 0,-1.41795 -1.541,-2.66791 -3.438,-2.66791 l -127.324,5e-5 c -1.897,0 -3.438,1.14996 -3.438,2.56791 l -0.002,7.73669 0,0 z"
         enable-background="new    " />
    </g>
    <g
       transform="translate(0,-86.137892)"
       id="g4464">
      <path
         d="m 152.505,49.82627 c 0,-2.34092 -1.913,-4.25185 -4.252,-4.25185 l -133.512,-5e-5 c -2.339,0 -4.252,1.91093 -4.252,4.25185 l 0,31.18098 c 0,2.33792 1.913,4.25185 4.252,4.25185 l 133.513,0 c 2.339,0 4.252,-1.91393 4.252,-4.25185 l -0.001,-31.18093 0,0 z"
         id="path4466"
         inkscape:connector-curvature="0"
         style="fill:#353535" />
      <path
         d="m 111.624,85.19306 36.913,0 c 2.339,0 4.252,-1.91093 4.252,-4.25185 l 0,-31.1879 c 0,-2.33792 -1.913,-4.25185 -4.252,-4.25185 l -36.913,0 0,39.6916 z"
         id="path4468"
         inkscape:connector-curvature="0"
         style="fill:#ce925d" />
      <path
         d="m 152.385,65.67977 c 0,-8.8887 -0.338,-16.0924 -0.757,-16.0924 -0.419,0 -0.419,32.1839 0,32.1839 0.419,0 0.757,-7.2048 0.757,-16.0915"
         id="path4470"
         inkscape:connector-curvature="0"
         style="fill:#b2b2b2" />
      <path
         d="m 152.102,71.62512 c -0.277,0 -0.277,-11.8916 0,-11.8916 l -0.008,0.001 c 0,0.732975 0.594,1.32695 1.328,1.32695 l 0.6,0 c 0.732,0 1.327,0.59398 1.327,1.32795 l 0,6.57577 c 0,0.729975 -0.595,1.32795 -1.327,1.32795 l -0.6,0 c -0.734,0 -1.328,0.59398 -1.328,1.32595 l 0.008,0.006 0,0 z"
         id="path4472"
         inkscape:connector-curvature="0"
         style="fill:#7c7c7c" />
      <path
         enable-background="new    "
         d="m 145.94,83.6321 c 1.76,0 4.006,-1.63294 4.006,-3.56288 l 0,-8.92569 c 0,1.93393 -2.246,4.96483 -4.006,4.96483 l -132.545,4e-5 c -1.76,0 -4.006,-3.0309 -4.006,-4.96483 l 0,8.92569 c 0,1.93393 2.246,3.56288 4.006,3.56288 l 132.545,-4e-5 z"
         id="path4474"
         inkscape:connector-curvature="0"
         style="opacity:0.35" />
      <g
         id="g4476">
        <g
           id="g4478">
          <path
             d="m 123.065,65.8337 0.564,-1.70094 1.787,0 -2.986,8.99269 -2.543,0 -3.046,-8.99269 1.751,0 0.588,1.70094 3.885,0 z m -1.954,5.9728 0.024,0 1.535,-4.66484 -3.107,0 1.548,4.66484 z"
             id="path4480"
             inkscape:connector-curvature="0"
             style="fill:#e0e0e0" />
          <path
             d="m 114.557,65.8337 0.564,-1.70094 1.787,0 -2.986,8.99269 -2.543,0 -3.046,-8.99269 1.751,0 0.588,1.70094 3.885,0 z m -1.954,5.9728 0.024,0 1.535,-4.66484 -3.107,0 1.548,4.66484 z"
             id="path4482"
             inkscape:connector-curvature="0"
             style="fill:#e0e0e0" />
          <path
             d="m 103.374,64.1298 0,8.99269 -4.478,0 c -1.763,0 -2.647,-0.355988 -2.647,-2.33892 0,-1.02796 0.189,-1.72794 1.28,-1.98793 l 0,-0.05 c -1.259,-0.144995 -1.497,-0.972967 -1.497,-2.10793 0,-1.99193 0.813,-2.50691 2.711,-2.50691 l 4.631,-2e-6 0,-0.001 z m -1.728,1.476 -2.362,0 c -1.028,0 -1.521,0.072 -1.521,1.17496 0,0.982966 0.216,1.27096 1.235,1.27096 l 2.647,0 0,-2.44592 z m 0,3.7538 -2.481,0 c -0.975,0 -1.188,0.29899 -1.188,1.25896 0,0.95997 0.384,1.03196 1.235,1.03196 l 2.435,0 0,-2.29092 z"
             id="path4484"
             inkscape:connector-curvature="0"
             style="fill:#e0e0e0" />
          <path
             d="m 90.692,64.9218 0.036,0 c 0.299,-0.842971 1.222,-0.86397 1.955,-0.86397 1.428,0 2.352,0.29899 2.352,2.00193 0,1.51195 -0.791,1.93193 -2.352,1.93193 -0.768,0 -1.523,-0.012 -1.882,-0.720975 l -0.048,0 0,0.815972 c 0,1.01997 0.084,1.37895 1.342,1.37895 0.66,0 1.188,-0.062 1.188,-0.87497 l 1.515,0 c 0,1.83394 -1.26,1.90293 -2.699,1.90293 -2.014,0 -2.853,-0.311989 -2.853,-2.42192 l 0,-3.94386 1.511,0 -0.065,0.793983 z m 2.83,1.1389 c 0,-0.88697 -0.356,-0.970967 -1.379,-0.970967 -0.804,0 -1.391,0.068 -1.391,0.970967 0,0.87597 0.645,0.899969 1.391,0.899969 0.768,0.001 1.379,0.001 1.379,-0.899969 z"
             id="path4486"
             inkscape:connector-curvature="0"
             style="fill:#e0e0e0" />
          <path
             d="m 88.506,70.4266 -0.792,0 0,1.42795 -1.512,0 0,-1.42795 -2.41,0 0,-1.14996 2.41,0 0,-3.22689 c -0.014,-0.57698 -0.014,-0.842971 -0.646,-0.842971 -0.852,0 -0.756,0.674977 -0.756,1.33295 l -1.331,0 c -0.024,-1.90493 0.456,-2.48091 2.087,-2.48091 1.655,0 2.159,0.382987 2.159,1.97893 l 0,3.23789 0.792,0 -0.001,1.150961 0,0 z"
             id="path4488"
             inkscape:connector-curvature="0"
             style="fill:#e0e0e0" />
          <path
             d="m 83.406,70.4266 -0.792,0 0,1.42795 -1.511,0 0,-1.42795 -2.411,0 0,-1.14996 2.411,0 0,-3.22689 c -0.012,-0.57698 -0.012,-0.842971 -0.646,-0.842971 -0.854,0 -0.757,0.674977 -0.757,1.33295 l -1.332,0 c -0.022,-1.90493 0.457,-2.48091 2.089,-2.48091 1.652,0 2.156,0.382987 2.156,1.97893 l 0,3.23789 0.792,0 0,1.150961 0.001,0 z"
             id="path4490"
             inkscape:connector-curvature="0"
             style="fill:#e0e0e0" />
          <path
             d="m 71.937,66.1337 c 0,-1.97993 1.141,-2.07593 2.938,-2.07593 2.411,0 2.899,0.767974 2.899,3.20289 0,2.25592 -0.357,3.23489 -2.899,3.23489 -2.593,0 -2.938,-0.755974 -2.938,-3.50188 l 4.33,0 c 0,-1.35395 -0.036,-1.78794 -1.391,-1.78794 -0.84,0 -1.43,-0.012 -1.43,0.926968 l -1.509,2e-6 0,0.001 z m 1.511,1.822 c 0,1.29596 0.192,1.39595 1.43,1.39595 1.308,0 1.391,-0.275991 1.391,-1.39595 l -2.821,0 z"
             id="path4492"
             inkscape:connector-curvature="0"
             style="fill:#e0e0e0" />
          <path
             d="m 69.331,70.4266 0.033,-0.826972 -0.06,0 c -0.3,0.695976 -0.948,0.895969 -1.679,0.895969 -1.331,0 -1.655,-0.790973 -1.655,-1.97893 l 0,-0.503983 1.415,0 0,0.323989 c 0,0.634978 0.06,1.00797 0.768,1.00797 0.899,0 1.163,-0.519982 1.142,-1.33195 l 0,-3.88587 1.511,0 0,6.29578 -1.475,0.004 0,0 z"
             id="path4494"
             inkscape:connector-curvature="0"
             style="fill:#e0e0e0" />
          <path
             d="m 61.45,63.8768 c 0.351,-1.42895 0.639,-2.54091 2.398,-2.54091 0.216,0 0.432,0.033 0.648,0.048 l 0,1.13996 c -0.108,-0.012 -0.219,-0.036 -0.324,-0.036 -0.948,0 -1.092,0.911969 -1.227,1.64594 l 0.731,0 2.075,6.29578 -1.562,0 -1.595,-5.36082 -0.023,0 -1.225,5.36082 -1.535,0 1.639,-6.55277 z"
             id="path4496"
             inkscape:connector-curvature="0"
             style="fill:#e0e0e0" />
        </g>
      </g>
      <path
         enable-background="new    "
         d="m 12.623,57.293 c 0,1.41995 1.54,2.56591 3.438,2.56591 l 127.326,0 c 1.897,0 3.438,-1.04896 3.438,-2.46692 l 0,-7.73573 c 0,-1.41795 -1.541,-2.66791 -3.438,-2.66791 l -127.324,5e-5 c -1.897,0 -3.438,1.14996 -3.438,2.56791 l -0.002,7.73669 0,0 z"
         id="path4498"
         inkscape:connector-curvature="0"
         style="opacity:0.35;fill:#ffffff" />
    </g>
    <g
       transform="translate(0,-41.600001)"
       id="g4380">
      <g
         id="g99">
        <path
           d="m 8.053,0.142995 1.96,1.52195 c 0,0 1.398,1.58295 2.616,3.27089 0.726,1.00597 1.334,4.54884 2.23,5.44681 0.899,0.895969 2.182,1.08996 3.271,1.08996 0.303,0 25.249,0 25.552,0 1.09,0 2.37,-0.189993 3.27,-1.08996 0.898,-0.897969 1.509,-4.44085 2.232,-5.44681 1.217,-1.68794 2.616,-3.27089 2.616,-3.27089 l 1.96,-1.52195 -45.707,0 z"
           id="path101"
           inkscape:connector-curvature="0"
           style="fill:#1a1a1a" />
        <path
           enable-background="new    "
           d="m 10.883,1.29196 0.511,0.189993 c 0,0 0,0.706976 1.136,1.45895 0.681,0.448985 1.246,0.644978 2.085,1.04696 0.84,0.399986 2.035,0.485983 3.056,0.485983 0.282,0 26.191,0 26.478,0 1.021,0 2.213,-0.085997 3.052,-0.485983 0.841,-0.401986 1.408,-0.597979 2.085,-1.04696 1.14,-0.751974 1.139,-1.45895 1.139,-1.45895 l 0.501,-0.187994 -40.043,-0.002 z"
           id="path103"
           inkscape:connector-curvature="0"
           style="opacity:0.2;fill:#ffffff" />
      </g>
      <g
         id="g105">
        <path
           d="m 107.719,0.142995 1.96,1.52195 c 0,0 1.398,1.58295 2.616,3.27089 0.726,1.00597 1.335,4.54884 2.23,5.44681 0.898,0.895969 2.182,1.08996 3.271,1.08996 0.304,0 25.249,0 25.552,0 1.09,0 2.369,-0.189993 3.271,-1.08996 0.897,-0.897969 1.508,-4.44085 2.231,-5.44681 1.217,-1.68794 2.615,-3.27089 2.615,-3.27089 l 1.961,-1.52195 -45.707,0 z"
           id="path107"
           inkscape:connector-curvature="0"
           style="fill:#1a1a1a" />
        <path
           enable-background="new    "
           d="m 110.549,1.29196 0.511,0.189993 c 0,0 0,0.706976 1.136,1.45895 0.681,0.448985 1.245,0.644978 2.085,1.04696 0.843,0.399986 2.035,0.485983 3.056,0.485983 0.282,0 26.192,0 26.479,0 1.021,0 2.213,-0.085997 3.053,-0.485983 0.841,-0.401986 1.407,-0.597979 2.087,-1.04696 1.138,-0.751974 1.137,-1.45895 1.137,-1.45895 l 0.501,-0.187994 -40.045,-0.002 z"
           id="path109"
           inkscape:connector-curvature="0"
           style="opacity:0.2;fill:#ffffff" />
      </g>
    </g>
    <g
       id="g4388">
      <g
         id="g111">
        <path
           d="m 8.053,87.14 1.96,-1.52495 c 0,0 1.398,-1.58195 2.616,-3.26889 0.726,-1.00597 1.334,-4.54884 2.23,-5.44781 0.899,-0.897969 2.182,-1.08996 3.271,-1.08996 0.303,0 25.249,0 25.552,0 1.09,0 2.37,0.187994 3.27,1.08996 0.898,0.898969 1.509,4.44185 2.232,5.44781 1.217,1.68694 2.616,3.26889 2.616,3.26889 l 1.96,1.52495 -45.707,0 z"
           id="path113"
           inkscape:connector-curvature="0"
           style="fill:#1a1a1a" />
        <path
           d="m 10.883,85.9911 0.511,-0.187994 c 0,0 0,-0.707976 1.136,-1.45995 0.681,-0.448985 1.246,-0.645978 2.085,-1.04496 0.84,-0.400986 2.035,-0.485983 3.056,-0.485983 0.282,0 26.191,0 26.478,0 1.021,0 2.213,0.085 3.052,0.485983 0.841,0.397986 1.408,0.59598 2.085,1.04496 1.14,0.751974 1.139,1.45995 1.139,1.45995 l 0.501,0.184994 -40.043,0.003 z"
           id="path115"
           inkscape:connector-curvature="0" />
      </g>
      <g
         id="g117">
        <path
           d="m 107.719,87.14 1.96,-1.52495 c 0,0 1.398,-1.58195 2.616,-3.26889 0.726,-1.00597 1.335,-4.54884 2.23,-5.44781 0.898,-0.897969 2.182,-1.08996 3.271,-1.08996 0.304,0 25.249,0 25.552,0 1.09,0 2.369,0.187994 3.271,1.08996 0.898,0.899969 1.508,4.44185 2.231,5.44781 1.217,1.68694 2.615,3.26889 2.615,3.26889 l 1.961,1.52495 -45.707,0 z"
           id="path119"
           inkscape:connector-curvature="0"
           style="fill:#1a1a1a" />
        <path
           d="m 110.549,85.9911 0.511,-0.187994 c 0,0 0,-0.707976 1.136,-1.45995 0.681,-0.448985 1.245,-0.645978 2.085,-1.04496 0.843,-0.400986 2.035,-0.485983 3.056,-0.485983 0.282,0 26.192,0 26.479,0 1.021,0 2.213,0.085 3.053,0.485983 0.841,0.397986 1.407,0.59598 2.087,1.04496 1.138,0.751974 1.137,1.45995 1.137,1.45995 l 0.501,0.184994 -40.045,0.003 z"
           id="path121"
           inkscape:connector-curvature="0" />
      </g>
    </g>
    <path
       id="path4"
       d="m 167.161,40.13757 5.666,0"
       inkscape:connector-curvature="0"
       style="fill:none;stroke:#000000;stroke-width:3;stroke-linecap:round;stroke-linejoin:round" />
    <path
       id="path6"
       d="m 167.161,53.82817 5.666,0"
       inkscape:connector-curvature="0"
       style="fill:none;stroke:#ff0000;stroke-width:3;stroke-linecap:round;stroke-linejoin:round" />
    <rect
       transform="scale(1,-1)"
       style="fill:#8c8c8c"
       id="connector0pin"
       width="1"
       height="2.9999001"
       y="-41.637569"
       x="161.495" />
    <rect
       transform="scale(1,-1)"
       style="fill:#8c8c8c"
       id="connector1pin"
       width="1"
       height="2.9999001"
       y="-55.328072"
       x="161.495" />
    <path
       style="fill:none;stroke:#c9c9c9;stroke-width:1"
       inkscape:connector-curvature="0"
       id="path19"
       d="m 150.794,28.55197 0,-15.5995 c 0,-0.778973 0.426,-1.41795 0.942,-1.41795 0.521,0 0.945,0.638978 0.945,1.41795 l 1,19.8533 c 0,0.778973 0.424,1.41695 0.944,1.41695 0.519,0 0.941,-0.637978 0.941,-1.41695 l 1,-25.6261 c 0,-0.777973 0.428,-1.41695 0.945,-1.41695 0.517,0 0.945,0.638978 0.945,1.41695 l 0,31.447 c 0,0.775973 0.639,1.41695 1.418,1.41695 l 1.604,0" />
    <path
       style="fill:none;stroke:#c9c9c9;stroke-width:1"
       inkscape:connector-curvature="0"
       id="path21"
       d="m 158.464,74.21547 0,-18.9713 c 0,-0.777973 0.639,-1.41595 1.418,-1.41595 l 1.604,0" />
    <rect
       transform="scale(1,-1)"
       style="fill:#c9c9c9"
       id="rect25"
       width="3.2290001"
       height="15.7855"
       y="-74.13047"
       x="155.34801" />
    <path
       style="fill:none;stroke:#000000;stroke-width:3"
       inkscape:connector-curvature="0"
       id="path123"
       d="m 161.495,40.13757 5.666,0" />
    <path
       style="fill:none;stroke:#ff0000;stroke-width:3"
       inkscape:connector-curvature="0"
       id="path125"
       d="m 161.495,53.82817 5.666,0" />
    <path
       sodipodi:nodetypes="cssccsccssc"
       d="m 2.346,20.161601 0,-52.37985 c 0,-0.774972 0.425,-1.41695 0.945,-1.41695 0.52,0 0.942,0.641979 0.942,1.41695 l 1,25.6261009 c 0,0.7789732 0.428,1.4169502 0.945,1.4169502 0.517,0 0.945,-0.637978 0.945,-1.4169502 l 1,-19.8532999 c 0,-0.778974 0.426,-1.41795 0.942,-1.41795 0.521,0 0.944,0.638977 0.944,1.41795 l 0,15.599499"
       id="path4502"
       inkscape:connector-curvature="0"
       style="fill:none;stroke:#c9c9c9;stroke-width:1" />
    <rect
       x="155.34801"
       y="11.526996"
       height="15.7855"
       width="3.2290001"
       id="rect4513"
       style="fill:#c9c9c9"
       transform="scale(1,-1)" />
  </g>
</svg>
