<?xml version="1.0" encoding="UTF-8" standalone="no"?>
<!-- Created with Inkscape (http://www.inkscape.org/) -->

<svg
   xmlns:dc="http://purl.org/dc/elements/1.1/"
   xmlns:cc="http://creativecommons.org/ns#"
   xmlns:rdf="http://www.w3.org/1999/02/22-rdf-syntax-ns#"
   xmlns:svg="http://www.w3.org/2000/svg"
   xmlns="http://www.w3.org/2000/svg"
   xmlns:sodipodi="http://sodipodi.sourceforge.net/DTD/sodipodi-0.dtd"
   xmlns:inkscape="http://www.inkscape.org/namespaces/inkscape"
   width="83mm"
   height="36mm"
   viewBox="0 0 294.09449 127.55906"
   id="svg2"
   version="1.1"
   inkscape:version="0.91 r13725"
   sodipodi:docname="e-pepar_2.9_with_yellow_breadborad.svg">
  <defs
     id="defs4" />
  <sodipodi:namedview
     id="base"
     pagecolor="#ffffff"
     bordercolor="#666666"
     borderopacity="1.0"
     inkscape:pageopacity="0.0"
     inkscape:pageshadow="2"
     inkscape:zoom="5.6"
     inkscape:cx="209.05597"
     inkscape:cy="72.505476"
     inkscape:document-units="px"
     inkscape:current-layer="layer1"
     showgrid="false"
     showguides="false"
     inkscape:window-width="1768"
     inkscape:window-height="1178"
     inkscape:window-x="0"
     inkscape:window-y="0"
     inkscape:window-maximized="0"
     units="mm" />
  <metadata
     id="metadata7">
    <rdf:RDF>
      <cc:Work
         rdf:about="">
        <dc:format>image/svg+xml</dc:format>
        <dc:type
           rdf:resource="http://purl.org/dc/dcmitype/StillImage" />
        <dc:title />
      </cc:Work>
    </rdf:RDF>
  </metadata>
  <g
     inkscape:label="レイヤー 1"
     inkscape:groupmode="layer"
     id="layer1"
     transform="translate(0,-924.80314)">
    <path
       id="path8"
       d="m 277.73036,952.36224 0,72.00006 5.93444,0 9.20117,0 1.22851,0 0,-1.7969 -1.22851,0 0,-68.40629 1.22851,0 0,-1.79687 -1.22851,0 -9.20117,0 z m 10.63561,2.69922 c 2.4,0 2.4,3.60156 0,3.60156 -2.4,0 -2.4,-3.60156 0,-3.60156 z m 0,9 c 2.4,0 2.4,3.60156 0,3.60156 -2.4,0 -2.4,-3.60156 0,-3.60156 z m 0,9 c 2.3991,8.9e-4 2.3991,3.60067 0,3.60156 -2.4009,9e-4 -2.4009,-3.60245 0,-3.60156 z m 0,9 c 2.3991,8.9e-4 2.3991,3.60067 0,3.60156 -2.4009,9e-4 -2.4009,-3.60245 0,-3.60156 z m 0,9 c 2.4,0 2.4,3.60157 0,3.60157 -2.4,0 -2.4,-3.60157 0,-3.60157 z m 0,9.00004 c 2.4009,-9e-4 2.4009,3.6024 0,3.6015 -2.4009,9e-4 -2.4009,-3.6024 0,-3.6015 z m 0,9 c 2.4009,-9e-4 2.4009,3.6024 0,3.6015 -2.4009,9e-4 -2.4009,-3.6024 0,-3.6015 z m 0,9 c 2.4,0 2.4,3.6015 0,3.6015 -2.4,0 -2.4,-3.6015 0,-3.6015 z"
       style="fill:#e6e6e6;stroke:none;stroke-width:0"
       inkscape:connector-curvature="0"
       sodipodi:nodetypes="cccccccccccccsssssssssssssssccccccsss" />
    <path
       style="opacity:1;fill:#205681;fill-opacity:1;stroke:none;stroke-width:0.72000003;stroke-linecap:round;stroke-linejoin:miter;stroke-miterlimit:4;stroke-dasharray:none;stroke-opacity:1"
       d="M 269.89258 -0.001953125 L 269.89258 0 L 228.43555 0 L 188.52344 0 L 72.226562 0 L 15.658203 0 L 5.6757812 0 L 5.6660156 0.060546875 C 5.4531156 0.024546877 5.2380781 0 5.0175781 0 C 2.2375781 0 0 2.9786346 0 6.6777344 L 0 22.978516 L 0.18945312 22.978516 C 3.9002531 22.978516 6.8867188 25.95715 6.8867188 29.65625 L 6.8867188 97.902344 C 6.8867188 101.60144 3.9002531 104.58008 0.18945312 104.58008 L 0 104.58008 L 0 120.88281 C 0 124.58191 2.2375781 127.55859 5.0175781 127.55859 C 5.2380781 127.55859 5.4531156 127.53505 5.6660156 127.49805 L 5.6757812 127.55859 L 15.658203 127.55859 L 72.226562 127.55859 L 188.52344 127.55859 L 228.43555 127.55859 L 269.89258 127.55859 L 272.91992 127.55859 L 275.5 127.55859 L 275.5625 127.55859 C 278.3128 127.51359 280.51758 124.55732 280.51758 120.88672 L 280.51758 6.6816406 C 280.51758 3.011141 278.3128 0.053812494 275.5625 0.0078125 L 275.5625 -0.001953125 L 275.5 -0.001953125 L 269.89258 -0.001953125 z M 8.3105469 2.4726562 A 5.8464565 5.8464562 0 0 1 14.15625 8.3203125 A 5.8464565 5.8464562 0 0 1 8.3105469 14.166016 A 5.8464565 5.8464562 0 0 1 2.4648438 8.3203125 A 5.8464565 5.8464562 0 0 1 8.3105469 2.4726562 z M 271.4043 2.4726562 A 5.8464565 5.8464559 0 0 1 277.25 8.3203125 A 5.8464565 5.8464559 0 0 1 271.4043 14.166016 A 5.8464565 5.8464559 0 0 1 265.55859 8.3203125 A 5.8464565 5.8464559 0 0 1 271.4043 2.4726562 z M 8.3105469 112.47266 A 5.8464565 5.8464562 0 0 1 14.15625 118.32031 A 5.8464565 5.8464562 0 0 1 8.3105469 124.16602 A 5.8464565 5.8464562 0 0 1 2.4648438 118.32031 A 5.8464565 5.8464562 0 0 1 8.3105469 112.47266 z M 271.4043 112.47266 A 5.8464565 5.8464559 0 0 1 277.25 118.32031 A 5.8464565 5.8464559 0 0 1 271.4043 124.16602 A 5.8464565 5.8464559 0 0 1 265.55859 118.32031 A 5.8464565 5.8464559 0 0 1 271.4043 112.47266 z "
       transform="translate(0,924.80314)"
       id="rect4259" />
    <rect
       style="opacity:1;fill:#9d7128;fill-opacity:1;stroke:none;stroke-width:1.77165353;stroke-linecap:round;stroke-linejoin:round;stroke-miterlimit:4;stroke-dasharray:none;stroke-opacity:1"
       id="rect4353"
       width="21.314728"
       height="54.431614"
       x="5.2654967"
       y="-1015.7997"
       transform="scale(1,-1)" />
    <rect
       style="opacity:1;fill:#bdbcb7;fill-opacity:1;stroke:none;stroke-width:1.77165353;stroke-linecap:round;stroke-linejoin:round;stroke-miterlimit:4;stroke-dasharray:none;stroke-opacity:1"
       id="rect4351"
       width="232.74417"
       height="118.75989"
       x="22.443842"
       y="-1047.975"
       transform="scale(1,-1)" />
    <path
       inkscape:connector-curvature="0"
       style="opacity:1;fill:#ffffff;fill-opacity:1;stroke:none;stroke-width:1.77165353;stroke-linecap:round;stroke-linejoin:round;stroke-miterlimit:4;stroke-dasharray:none;stroke-opacity:1"
       d="m 22.4434,929.21511 0,29.2953 0,10.0125 0,54.28029 0,25.1713 8.7726,0 9.7743,0 0,-25.1713 0,-54.28029 0,-10.0125 c 0,-3.2836 -1.7014,-5.9264 -3.8152,-5.9264 l -8.7339,0 0,-23.3689 -5.9978,0 z m 7.1591,37.3068 4.3805,0 0,47.04289 -4.3805,0 0,-47.04289 z"
       id="rect4372" />
    <rect
       y="-1044.9786"
       x="44.71447"
       height="112.492"
       width="207.19379"
       id="rect4398"
       style="opacity:1;fill:#d8d9cf;fill-opacity:1;stroke:none;stroke-width:1.77165353;stroke-linecap:round;stroke-linejoin:round;stroke-miterlimit:4;stroke-dasharray:none;stroke-opacity:1"
       transform="scale(1,-1)" />
    <rect
       style="opacity:1;fill:#edca42;fill-opacity:1;stroke:none;stroke-width:0.72000003;stroke-linecap:round;stroke-linejoin:miter;stroke-miterlimit:4;stroke-dasharray:none;stroke-opacity:1"
       id="rect4183"
       width="147.5"
       height="29.285713"
       x="76.428574"
       y="986.29077" />
    <text
       sodipodi:linespacing="125%"
       id="text4487"
       y="981.68506"
       x="148.68643"
       style="font-style:normal;font-weight:normal;font-size:20.18659782px;line-height:125%;font-family:sans-serif;letter-spacing:0px;word-spacing:0px;fill:#4b4843;fill-opacity:1;stroke:none;stroke-width:1px;stroke-linecap:butt;stroke-linejoin:miter;stroke-opacity:1"
       xml:space="preserve"><tspan
         style="font-style:normal;font-variant:normal;font-weight:normal;font-stretch:normal;font-size:20.18625069px;line-height:125%;font-family:'Droid Sans';-inkscape-font-specification:'Droid Sans, Normal';text-align:center;writing-mode:lr-tb;text-anchor:middle;fill:#4b4843;fill-opacity:1"
         y="981.68506"
         x="148.68643"
         id="tspan4489"
         sodipodi:role="line">2.9inch</tspan><tspan
         style="font-style:normal;font-variant:normal;font-weight:normal;font-stretch:normal;font-size:20.18625069px;line-height:125%;font-family:'Droid Sans';-inkscape-font-specification:'Droid Sans, Normal';text-align:center;writing-mode:lr-tb;text-anchor:middle;fill:#ffffff;fill-opacity:1"
         id="tspan4493"
         y="1006.9178"
         x="148.68643"
         sodipodi:role="line">e-Pepar display</tspan></text>
    <path
       style="opacity:1;fill:#666666;fill-opacity:1;stroke:none;stroke-width:0.72000003;stroke-linecap:round;stroke-linejoin:miter;stroke-miterlimit:4;stroke-dasharray:none;stroke-opacity:1"
       d="M 31.785156 9.5234375 L 31.785156 25.416016 L 40.892578 25.416016 L 40.892578 9.5234375 L 31.785156 9.5234375 z M 36.339844 15.773438 A 1.6964285 1.6964284 0 0 1 38.035156 17.470703 A 1.6964285 1.6964284 0 0 1 36.339844 19.166016 A 1.6964285 1.6964284 0 0 1 34.642578 17.470703 A 1.6964285 1.6964284 0 0 1 36.339844 15.773438 z "
       transform="translate(0,924.80314)"
       id="rect4509" />
    <ellipse
       ry="2.5649998"
       rx="2.5650005"
       transform="matrix(0,-1,1,0,0,0)"
       id="connector15pin"
       connectorname="GND"
       cx="-1019.8622"
       cy="288.36597"
       style="fill:none;stroke:#9a916c;stroke-width:1.53000009" />
    <ellipse
       ry="2.5649998"
       rx="2.5650005"
       transform="matrix(0,-1,1,0,0,0)"
       id="connector14pin"
       connectorname="VCC"
       cx="-1010.8622"
       cy="288.36597"
       style="fill:none;stroke:#9a916c;stroke-width:1.53000009" />
    <ellipse
       ry="2.5649998"
       rx="2.5650005"
       transform="matrix(0,-1,1,0,0,0)"
       id="connector13pin"
       connectorname="SCL"
       cx="-1001.8622"
       cy="288.36597"
       style="fill:none;stroke:#9a916c;stroke-width:1.53000009" />
    <ellipse
       ry="2.5649998"
       rx="2.5650005"
       transform="matrix(0,-1,1,0,0,0)"
       id="connector12pin"
       connectorname="SDA"
       cx="-992.86224"
       cy="288.36597"
       style="fill:none;stroke:#9a916c;stroke-width:1.53000009" />
    <ellipse
       ry="2.5649998"
       rx="2.5650005"
       transform="matrix(0,-1,1,0,0,0)"
       id="connector11pin"
       connectorname="SDO"
       cx="-983.86224"
       cy="288.36597"
       style="fill:none;stroke:#9a916c;stroke-width:1.53000009" />
    <ellipse
       ry="2.5649998"
       rx="2.5650005"
       transform="matrix(0,-1,1,0,0,0)"
       id="connector10pin"
       connectorname="CS"
       cx="-974.86224"
       cy="288.36597"
       style="fill:none;stroke:#9a916c;stroke-width:1.53000009" />
    <ellipse
       ry="2.5649998"
       rx="2.5650005"
       transform="matrix(0,-1,1,0,0,0)"
       id="connector9pin"
       connectorname="INT2"
       cx="-965.86224"
       cy="288.36597"
       style="fill:none;stroke:#9a916c;stroke-width:1.53000009" />
    <ellipse
       ry="2.5649998"
       rx="2.5650005"
       transform="matrix(0,-1,1,0,0,0)"
       id="connector8pin"
       connectorname="INT1"
       cx="-956.86224"
       cy="288.36597"
       style="fill:none;stroke:#9a916c;stroke-width:1.53000009" />
    <g
       style="fill:#ffffff"
       transform="matrix(0.90252842,0,0,0.90252858,-927.59188,-189.05187)"
       id="g4744">
      <path
         inkscape:connector-curvature="0"
         id="path4675"
         style="font-style:normal;font-weight:normal;font-size:medium;line-height:125%;font-family:sans-serif;letter-spacing:0px;word-spacing:0px;fill:#ffffff;fill-opacity:1;stroke:none;stroke-width:1px;stroke-linecap:butt;stroke-linejoin:miter;stroke-opacity:1"
         d="m 1315.6605,1269.7796 0,1.8506 1.0961,0 q 0.5515,0 0.8153,-0.2267 0.2673,-0.23 0.2673,-0.7003 0,-0.4736 -0.2673,-0.6969 -0.2638,-0.2267 -0.8153,-0.2267 l -1.0961,0 z m 0,-2.0772 0,1.5224 1.0115,0 q 0.5007,0 0.7443,-0.1861 0.247,-0.1894 0.247,-0.5751 0,-0.3823 -0.247,-0.5717 -0.2436,-0.1895 -0.7443,-0.1895 l -1.0115,0 z m -0.6834,-0.5616 1.7457,0 q 0.7815,0 1.2044,0.3248 0.4228,0.3248 0.4228,0.9236 0,0.4635 -0.2165,0.7375 -0.2165,0.274 -0.636,0.3417 0.5041,0.1083 0.7815,0.4533 0.2808,0.3417 0.2808,0.8559 0,0.6767 -0.4601,1.0454 -0.4601,0.3688 -1.3093,0.3688 l -1.8133,0 0,-5.051 z" />
      <path
         inkscape:connector-curvature="0"
         id="path4677"
         style="font-style:normal;font-weight:normal;font-size:medium;line-height:125%;font-family:sans-serif;letter-spacing:0px;word-spacing:0px;fill:#ffffff;fill-opacity:1;stroke:none;stroke-width:1px;stroke-linecap:butt;stroke-linejoin:miter;stroke-opacity:1"
         d="m 1319.6491,1267.1408 0.6868,0 0,3.0685 q 0,0.8119 0.2943,1.1705 0.2944,0.3553 0.9541,0.3553 0.6563,0 0.9506,-0.3553 0.2943,-0.3586 0.2943,-1.1705 l 0,-3.0685 0.6868,0 0,3.1531 q 0,0.9878 -0.4905,1.4919 -0.4872,0.5041 -1.4412,0.5041 -0.9574,0 -1.448,-0.5041 -0.4872,-0.5041 -0.4872,-1.4919 l 0,-3.1531 z" />
      <path
         inkscape:connector-curvature="0"
         id="path4679"
         style="font-style:normal;font-weight:normal;font-size:medium;line-height:125%;font-family:sans-serif;letter-spacing:0px;word-spacing:0px;fill:#ffffff;fill-opacity:1;stroke:none;stroke-width:1px;stroke-linecap:butt;stroke-linejoin:miter;stroke-opacity:1"
         d="m 1327.8294,1267.3066 0,0.6665 q -0.389,-0.1861 -0.7341,-0.2774 -0.3451,-0.091 -0.6665,-0.091 -0.5582,0 -0.8627,0.2165 -0.301,0.2166 -0.301,0.6158 0,0.3349 0.1996,0.5074 0.2029,0.1692 0.7645,0.274 l 0.4128,0.085 q 0.7645,0.1455 1.1265,0.5143 0.3654,0.3653 0.3654,0.981 0,0.7342 -0.4939,1.1131 -0.4906,0.3789 -1.4412,0.3789 -0.3586,0 -0.7646,-0.081 -0.4026,-0.081 -0.8356,-0.2402 l 0,-0.7037 q 0.4161,0.2334 0.8153,0.3518 0.3992,0.1185 0.7849,0.1185 0.5853,0 0.9033,-0.2301 0.318,-0.23 0.318,-0.6563 0,-0.3721 -0.2301,-0.5819 -0.2266,-0.2097 -0.7476,-0.3146 l -0.4162,-0.081 q -0.7645,-0.1523 -1.1062,-0.477 -0.3417,-0.3248 -0.3417,-0.9033 0,-0.6699 0.4702,-1.0555 0.4737,-0.3857 1.3025,-0.3857 0.3552,0 0.724,0.064 0.3688,0.064 0.7544,0.1928 z" />
      <path
         inkscape:connector-curvature="0"
         id="path4681"
         style="font-style:normal;font-weight:normal;font-size:medium;line-height:125%;font-family:sans-serif;letter-spacing:0px;word-spacing:0px;fill:#ffffff;fill-opacity:1;stroke:none;stroke-width:1px;stroke-linecap:butt;stroke-linejoin:miter;stroke-opacity:1"
         d="m 1328.5196,1267.1408 0.7341,0 1.4006,2.0772 1.3904,-2.0772 0.7342,0 -1.7863,2.6456 0,2.4054 -0.6868,0 0,-2.4054 -1.7862,-2.6456 z" />
    </g>
    <g
       style="fill:#ffffff"
       transform="matrix(0.90252842,0,0,0.90252858,-925.33544,-191.01099)"
       id="g4750">
      <path
         inkscape:connector-curvature="0"
         id="path4683"
         style="font-style:normal;font-weight:normal;font-size:medium;line-height:125%;font-family:sans-serif;letter-spacing:0px;word-spacing:0px;fill:#ffffff;fill-opacity:1;stroke:none;stroke-width:1px;stroke-linecap:butt;stroke-linejoin:miter;stroke-opacity:1"
         d="m 1317.3723,1281.9664 q 0.2199,0.074 0.4263,0.318 0.2098,0.2436 0.4195,0.6699 l 0.6935,1.3802 -0.7341,0 -0.6462,-1.2957 q -0.2503,-0.5074 -0.4871,-0.6732 -0.2335,-0.1658 -0.6394,-0.1658 l -0.7443,0 0,2.1347 -0.6834,0 0,-5.0509 1.5427,0 q 0.8661,0 1.2923,0.362 0.4263,0.362 0.4263,1.0927 0,0.4771 -0.2233,0.7917 -0.2199,0.3146 -0.6428,0.4364 z m -1.7118,-2.1212 0,1.793 0.8593,0 q 0.4939,0 0.7443,-0.2266 0.2537,-0.2301 0.2537,-0.6733 0,-0.4431 -0.2537,-0.6664 -0.2504,-0.2267 -0.7443,-0.2267 l -0.8593,0 z" />
      <path
         inkscape:connector-curvature="0"
         id="path4685"
         style="font-style:normal;font-weight:normal;font-size:medium;line-height:125%;font-family:sans-serif;letter-spacing:0px;word-spacing:0px;fill:#ffffff;fill-opacity:1;stroke:none;stroke-width:1px;stroke-linecap:butt;stroke-linejoin:miter;stroke-opacity:1"
         d="m 1322.8225,1279.4494 0,0.6665 q -0.3891,-0.1861 -0.7342,-0.2775 -0.345,-0.091 -0.6664,-0.091 -0.5582,0 -0.8627,0.2165 -0.3011,0.2165 -0.3011,0.6157 0,0.335 0.1996,0.5075 0.203,0.1691 0.7646,0.274 l 0.4127,0.085 q 0.7646,0.1455 1.1266,0.5142 0.3653,0.3654 0.3653,0.9811 0,0.7341 -0.4939,1.1131 -0.4905,0.3789 -1.4412,0.3789 -0.3586,0 -0.7645,-0.081 -0.4026,-0.081 -0.8357,-0.2402 l 0,-0.7037 q 0.4162,0.2334 0.8154,0.3518 0.3992,0.1184 0.7848,0.1184 0.5853,0 0.9033,-0.23 0.318,-0.2301 0.318,-0.6563 0,-0.3722 -0.23,-0.5819 -0.2267,-0.2098 -0.7477,-0.3146 l -0.4161,-0.081 q -0.7646,-0.1523 -1.1063,-0.4771 -0.3417,-0.3247 -0.3417,-0.9032 0,-0.6699 0.4703,-1.0556 0.4736,-0.3856 1.3025,-0.3856 0.3552,0 0.7239,0.064 0.3688,0.064 0.7545,0.1928 z" />
      <path
         inkscape:connector-curvature="0"
         id="path4687"
         style="font-style:normal;font-weight:normal;font-size:medium;line-height:125%;font-family:sans-serif;letter-spacing:0px;word-spacing:0px;fill:#ffffff;fill-opacity:1;stroke:none;stroke-width:1px;stroke-linecap:butt;stroke-linejoin:miter;stroke-opacity:1"
         d="m 1323.5059,1279.2836 4.2728,0 0,0.5751 -1.7931,0 0,4.4758 -0.6867,0 0,-4.4758 -1.793,0 0,-0.5751 z" />
    </g>
    <g
       style="fill:#ffffff"
       transform="matrix(0.90252842,0,0,0.90252858,-923.67142,-192.72762)"
       id="g4755">
      <path
         inkscape:connector-curvature="0"
         id="path4689"
         style="font-style:normal;font-weight:normal;font-size:medium;line-height:125%;font-family:sans-serif;letter-spacing:0px;word-spacing:0px;fill:#ffffff;fill-opacity:1;stroke:none;stroke-width:1px;stroke-linecap:butt;stroke-linejoin:miter;stroke-opacity:1"
         d="m 1315.6605,1291.7202 0,3.9277 0.8255,0 q 1.0453,0 1.5291,-0.4736 0.4872,-0.4736 0.4872,-1.4953 0,-1.015 -0.4872,-1.4852 -0.4838,-0.4736 -1.5291,-0.4736 l -0.8255,0 z m -0.6834,-0.5616 1.404,0 q 1.4682,0 2.155,0.6123 0.6868,0.609 0.6868,1.9081 0,1.3058 -0.6902,1.9182 -0.6901,0.6123 -2.1516,0.6123 l -1.404,0 0,-5.0509 z" />
      <path
         inkscape:connector-curvature="0"
         id="path4691"
         style="font-style:normal;font-weight:normal;font-size:medium;line-height:125%;font-family:sans-serif;letter-spacing:0px;word-spacing:0px;fill:#ffffff;fill-opacity:1;stroke:none;stroke-width:1px;stroke-linecap:butt;stroke-linejoin:miter;stroke-opacity:1"
         d="m 1324.0911,1291.5476 0,0.7206 q -0.3451,-0.3214 -0.7375,-0.4804 -0.389,-0.159 -0.8288,-0.159 -0.8661,0 -1.3262,0.5312 -0.4601,0.5277 -0.4601,1.5291 0,0.998 0.4601,1.5292 0.4601,0.5277 1.3262,0.5277 0.4398,0 0.8288,-0.159 0.3924,-0.159 0.7375,-0.4804 l 0,0.7139 q -0.3586,0.2435 -0.7612,0.3653 -0.3992,0.1218 -0.8457,0.1218 -1.1469,0 -1.8066,-0.7003 -0.6597,-0.7037 -0.6597,-1.9182 0,-1.2179 0.6597,-1.9182 0.6597,-0.7037 1.8066,-0.7037 0.4533,0 0.8525,0.1218 0.4026,0.1184 0.7544,0.3586 z" />
    </g>
    <g
       style="fill:#ffffff"
       transform="matrix(0.90252842,0,0,0.90252858,-923.11726,-193.31734)"
       id="g4759">
      <path
         inkscape:connector-curvature="0"
         id="path4693"
         style="font-style:normal;font-weight:normal;font-size:medium;line-height:125%;font-family:sans-serif;letter-spacing:0px;word-spacing:0px;fill:#ffffff;fill-opacity:1;stroke:none;stroke-width:1px;stroke-linecap:butt;stroke-linejoin:miter;stroke-opacity:1"
         d="m 1318.7594,1302.1726 0,0.7206 q -0.3451,-0.3214 -0.7375,-0.4804 -0.3891,-0.159 -0.8289,-0.159 -0.866,0 -1.3261,0.5311 -0.4601,0.5278 -0.4601,1.5292 0,0.998 0.4601,1.5291 0.4601,0.5278 1.3261,0.5278 0.4398,0 0.8289,-0.159 0.3924,-0.159 0.7375,-0.4804 l 0,0.7138 q -0.3586,0.2436 -0.7612,0.3654 -0.3992,0.1218 -0.8458,0.1218 -1.1468,0 -1.8065,-0.7003 -0.6597,-0.7037 -0.6597,-1.9182 0,-1.2179 0.6597,-1.9182 0.6597,-0.7037 1.8065,-0.7037 0.4534,0 0.8526,0.1218 0.4026,0.1184 0.7544,0.3586 z" />
      <path
         inkscape:connector-curvature="0"
         id="path4695"
         style="font-style:normal;font-weight:normal;font-size:medium;line-height:125%;font-family:sans-serif;letter-spacing:0px;word-spacing:0px;fill:#ffffff;fill-opacity:1;stroke:none;stroke-width:1px;stroke-linecap:butt;stroke-linejoin:miter;stroke-opacity:1"
         d="m 1322.8495,1301.9493 0,0.6665 q -0.389,-0.1861 -0.7341,-0.2774 -0.3451,-0.091 -0.6665,-0.091 -0.5582,0 -0.8626,0.2165 -0.3011,0.2165 -0.3011,0.6158 0,0.3349 0.1996,0.5074 0.2029,0.1692 0.7645,0.274 l 0.4128,0.085 q 0.7645,0.1455 1.1265,0.5142 0.3654,0.3654 0.3654,0.9811 0,0.7342 -0.4939,1.1131 -0.4906,0.3789 -1.4412,0.3789 -0.3586,0 -0.7646,-0.081 -0.4026,-0.081 -0.8356,-0.2402 l 0,-0.7037 q 0.4161,0.2334 0.8153,0.3518 0.3992,0.1184 0.7849,0.1184 0.5853,0 0.9033,-0.23 0.318,-0.23 0.318,-0.6563 0,-0.3722 -0.2301,-0.5819 -0.2266,-0.2098 -0.7476,-0.3146 l -0.4161,-0.081 q -0.7646,-0.1523 -1.1063,-0.477 -0.3417,-0.3248 -0.3417,-0.9033 0,-0.6699 0.4702,-1.0555 0.4737,-0.3857 1.3025,-0.3857 0.3553,0 0.724,0.064 0.3688,0.064 0.7544,0.1928 z" />
    </g>
    <g
       style="fill:#ffffff"
       transform="matrix(0.90252842,0,0,0.90252858,-925.16307,-192.13347)"
       id="g4763">
      <path
         inkscape:connector-curvature="0"
         id="path4697"
         style="font-style:normal;font-weight:normal;font-size:medium;line-height:125%;font-family:sans-serif;letter-spacing:0px;word-spacing:0px;fill:#ffffff;fill-opacity:1;stroke:none;stroke-width:1px;stroke-linecap:butt;stroke-linejoin:miter;stroke-opacity:1"
         d="m 1318.7594,1310.8333 0,0.7206 q -0.3451,-0.3214 -0.7375,-0.4804 -0.3891,-0.159 -0.8289,-0.159 -0.866,0 -1.3261,0.5311 -0.4601,0.5278 -0.4601,1.5291 0,0.9981 0.4601,1.5292 0.4601,0.5278 1.3261,0.5278 0.4398,0 0.8289,-0.159 0.3924,-0.1591 0.7375,-0.4804 l 0,0.7138 q -0.3586,0.2436 -0.7612,0.3654 -0.3992,0.1217 -0.8458,0.1217 -1.1468,0 -1.8065,-0.7003 -0.6597,-0.7036 -0.6597,-1.9182 0,-1.2179 0.6597,-1.9182 0.6597,-0.7036 1.8065,-0.7036 0.4534,0 0.8526,0.1218 0.4026,0.1184 0.7544,0.3586 z" />
      <path
         inkscape:connector-curvature="0"
         id="path4699"
         style="font-style:normal;font-weight:normal;font-size:medium;line-height:125%;font-family:sans-serif;letter-spacing:0px;word-spacing:0px;fill:#ffffff;fill-opacity:1;stroke:none;stroke-width:1px;stroke-linecap:butt;stroke-linejoin:miter;stroke-opacity:1"
         d="m 1319.8217,1310.4442 0.6834,0 0,4.4758 2.4595,0 0,0.5751 -3.1429,0 0,-5.0509 z" />
      <path
         inkscape:connector-curvature="0"
         id="path4701"
         style="font-style:normal;font-weight:normal;font-size:medium;line-height:125%;font-family:sans-serif;letter-spacing:0px;word-spacing:0px;fill:#ffffff;fill-opacity:1;stroke:none;stroke-width:1px;stroke-linecap:butt;stroke-linejoin:miter;stroke-opacity:1"
         d="m 1323.6784,1310.4442 0.6834,0 0,2.1347 2.2666,-2.1347 0.8796,0 -2.5068,2.3546 2.6861,2.6963 -0.8999,0 -2.4256,-2.4324 0,2.4324 -0.6834,0 0,-5.0509 z" />
    </g>
    <g
       style="fill:#ffffff"
       transform="matrix(0.90252842,0,0,0.90252858,-924.61184,-190.94693)"
       id="g4768">
      <path
         inkscape:connector-curvature="0"
         id="path4703"
         style="font-style:normal;font-weight:normal;font-size:medium;line-height:125%;font-family:sans-serif;letter-spacing:0px;word-spacing:0px;fill:#ffffff;fill-opacity:1;stroke:none;stroke-width:1px;stroke-linecap:butt;stroke-linejoin:miter;stroke-opacity:1"
         d="m 1315.6605,1319.6665 0,3.9277 0.8255,0 q 1.0453,0 1.5291,-0.4736 0.4872,-0.4736 0.4872,-1.4953 0,-1.015 -0.4872,-1.4852 -0.4838,-0.4736 -1.5291,-0.4736 l -0.8255,0 z m -0.6834,-0.5616 1.404,0 q 1.4682,0 2.155,0.6123 0.6868,0.609 0.6868,1.9081 0,1.3058 -0.6902,1.9182 -0.6901,0.6123 -2.1516,0.6123 l -1.404,0 0,-5.0509 z" />
      <path
         inkscape:connector-curvature="0"
         id="path4705"
         style="font-style:normal;font-weight:normal;font-size:medium;line-height:125%;font-family:sans-serif;letter-spacing:0px;word-spacing:0px;fill:#ffffff;fill-opacity:1;stroke:none;stroke-width:1px;stroke-linecap:butt;stroke-linejoin:miter;stroke-opacity:1"
         d="m 1320.3088,1319.1049 0.6834,0 0,5.0509 -0.6834,0 0,-5.0509 z" />
      <path
         inkscape:connector-curvature="0"
         id="path4707"
         style="font-style:normal;font-weight:normal;font-size:medium;line-height:125%;font-family:sans-serif;letter-spacing:0px;word-spacing:0px;fill:#ffffff;fill-opacity:1;stroke:none;stroke-width:1px;stroke-linecap:butt;stroke-linejoin:miter;stroke-opacity:1"
         d="m 1322.3522,1319.1049 0.9202,0 2.2396,4.2254 0,-4.2254 0.6631,0 0,5.0509 -0.9202,0 -2.2396,-4.2255 0,4.2255 -0.6631,0 0,-5.0509 z" />
    </g>
    <g
       style="fill:#ffffff"
       transform="matrix(0.90252842,0,0,0.90252858,-926.10654,-189.76648)"
       id="g4773">
      <path
         inkscape:connector-curvature="0"
         id="path4709"
         style="font-style:normal;font-weight:normal;font-size:medium;line-height:125%;font-family:sans-serif;letter-spacing:0px;word-spacing:0px;fill:#ffffff;fill-opacity:1;stroke:none;stroke-width:1px;stroke-linecap:butt;stroke-linejoin:miter;stroke-opacity:1"
         d="m 1318.4211,1332.0959 0,-1.3566 -1.1164,0 0,-0.5616 1.793,0 0,2.1685 q -0.3958,0.2808 -0.8728,0.4263 -0.477,0.1421 -1.0183,0.1421 -1.1841,0 -1.854,-0.6902 -0.6664,-0.6935 -0.6664,-1.9283 0,-1.2382 0.6664,-1.9284 0.6699,-0.6935 1.854,-0.6935 0.4939,0 0.9371,0.1218 0.4465,0.1218 0.8221,0.3586 l 0,0.7274 q -0.3789,-0.3214 -0.8052,-0.4838 -0.4263,-0.1624 -0.8965,-0.1624 -0.927,0 -1.3939,0.5176 -0.4634,0.5176 -0.4634,1.5427 0,1.0217 0.4634,1.5393 0.4669,0.5176 1.3939,0.5176 0.362,0 0.6461,-0.061 0.2842,-0.064 0.5109,-0.1962 z" />
      <path
         inkscape:connector-curvature="0"
         id="path4711"
         style="font-style:normal;font-weight:normal;font-size:medium;line-height:125%;font-family:sans-serif;letter-spacing:0px;word-spacing:0px;fill:#ffffff;fill-opacity:1;stroke:none;stroke-width:1px;stroke-linecap:butt;stroke-linejoin:miter;stroke-opacity:1"
         d="m 1320.3494,1327.7656 0.9202,0 2.2396,4.2254 0,-4.2254 0.6631,0 0,5.0509 -0.9202,0 -2.2396,-4.2255 0,4.2255 -0.6631,0 0,-5.0509 z" />
      <path
         inkscape:connector-curvature="0"
         id="path4713"
         style="font-style:normal;font-weight:normal;font-size:medium;line-height:125%;font-family:sans-serif;letter-spacing:0px;word-spacing:0px;fill:#ffffff;fill-opacity:1;stroke:none;stroke-width:1px;stroke-linecap:butt;stroke-linejoin:miter;stroke-opacity:1"
         d="m 1326.2157,1328.3271 0,3.9278 0.8255,0 q 1.0453,0 1.5291,-0.4736 0.4872,-0.4737 0.4872,-1.4954 0,-1.0149 -0.4872,-1.4851 -0.4838,-0.4737 -1.5291,-0.4737 l -0.8255,0 z m -0.6834,-0.5615 1.404,0 q 1.4682,0 2.155,0.6123 0.6868,0.6089 0.6868,1.908 0,1.3059 -0.6902,1.9182 -0.6901,0.6124 -2.1516,0.6124 l -1.404,0 0,-5.0509 z" />
    </g>
    <g
       style="fill:#ffffff"
       transform="matrix(0.90252842,0,0,0.90252858,-925.30657,-188.583)"
       id="g4778">
      <path
         inkscape:connector-curvature="0"
         id="path4715"
         style="font-style:normal;font-weight:normal;font-size:medium;line-height:125%;font-family:sans-serif;letter-spacing:0px;word-spacing:0px;fill:#ffffff;fill-opacity:1;stroke:none;stroke-width:1px;stroke-linecap:butt;stroke-linejoin:miter;stroke-opacity:1"
         d="m 1316.2796,1341.4772 -1.9284,-5.051 0.7139,0 1.6002,4.2525 1.6035,-4.2525 0.7105,0 -1.925,5.051 -0.7747,0 z" />
      <path
         inkscape:connector-curvature="0"
         id="path4717"
         style="font-style:normal;font-weight:normal;font-size:medium;line-height:125%;font-family:sans-serif;letter-spacing:0px;word-spacing:0px;fill:#ffffff;fill-opacity:1;stroke:none;stroke-width:1px;stroke-linecap:butt;stroke-linejoin:miter;stroke-opacity:1"
         d="m 1323.4957,1336.8153 0,0.7206 q -0.3451,-0.3214 -0.7375,-0.4804 -0.3891,-0.159 -0.8289,-0.159 -0.866,0 -1.3261,0.5311 -0.4601,0.5278 -0.4601,1.5292 0,0.998 0.4601,1.5291 0.4601,0.5278 1.3261,0.5278 0.4398,0 0.8289,-0.159 0.3924,-0.159 0.7375,-0.4804 l 0,0.7138 q -0.3586,0.2436 -0.7612,0.3654 -0.3992,0.1218 -0.8458,0.1218 -1.1468,0 -1.8065,-0.7003 -0.6597,-0.7037 -0.6597,-1.9182 0,-1.2179 0.6597,-1.9182 0.6597,-0.7037 1.8065,-0.7037 0.4534,0 0.8526,0.1218 0.4026,0.1184 0.7544,0.3586 z" />
      <path
         inkscape:connector-curvature="0"
         id="path4719"
         style="font-style:normal;font-weight:normal;font-size:medium;line-height:125%;font-family:sans-serif;letter-spacing:0px;word-spacing:0px;fill:#ffffff;fill-opacity:1;stroke:none;stroke-width:1px;stroke-linecap:butt;stroke-linejoin:miter;stroke-opacity:1"
         d="m 1328.3403,1336.8153 0,0.7206 q -0.3451,-0.3214 -0.7375,-0.4804 -0.3891,-0.159 -0.8289,-0.159 -0.8661,0 -1.3262,0.5311 -0.4601,0.5278 -0.4601,1.5292 0,0.998 0.4601,1.5291 0.4601,0.5278 1.3262,0.5278 0.4398,0 0.8289,-0.159 0.3924,-0.159 0.7375,-0.4804 l 0,0.7138 q -0.3586,0.2436 -0.7612,0.3654 -0.3992,0.1218 -0.8458,0.1218 -1.1469,0 -1.8066,-0.7003 -0.6597,-0.7037 -0.6597,-1.9182 0,-1.2179 0.6597,-1.9182 0.6597,-0.7037 1.8066,-0.7037 0.4533,0 0.8525,0.1218 0.4026,0.1184 0.7545,0.3586 z" />
    </g>
  </g>
</svg>
