<?xml version="1.0" encoding="UTF-8" standalone="no"?>
<!-- Created with Fritzing (http://www.fritzing.org/) -->

<svg
   xmlns:dc="http://purl.org/dc/elements/1.1/"
   xmlns:cc="http://creativecommons.org/ns#"
   xmlns:rdf="http://www.w3.org/1999/02/22-rdf-syntax-ns#"
   xmlns:svg="http://www.w3.org/2000/svg"
   xmlns="http://www.w3.org/2000/svg"
   xmlns:sodipodi="http://sodipodi.sourceforge.net/DTD/sodipodi-0.dtd"
   xmlns:inkscape="http://www.inkscape.org/namespaces/inkscape"
   version="1.2"
   x="0in"
   y="0in"
   width="56mm"
   height="36mm"
   viewBox="0 0 158.74016 102.04724"
   id="svg2"
   inkscape:version="0.91 r13725"
   sodipodi:docname="pins.svg">
  <metadata
     id="metadata475">
    <rdf:RDF>
      <cc:Work
         rdf:about="">
        <dc:format>image/svg+xml</dc:format>
        <dc:type
           rdf:resource="http://purl.org/dc/dcmitype/StillImage" />
        <dc:title></dc:title>
      </cc:Work>
    </rdf:RDF>
  </metadata>
  <defs
     id="defs473" />
  <sodipodi:namedview
     pagecolor="#ffffff"
     bordercolor="#666666"
     borderopacity="1"
     objecttolerance="10"
     gridtolerance="10"
     guidetolerance="10"
     inkscape:pageopacity="0"
     inkscape:pageshadow="2"
     inkscape:window-width="1769"
     inkscape:window-height="1083"
     id="namedview471"
     showgrid="false"
     units="mm"
     inkscape:zoom="2.8526018"
     inkscape:cx="5.4964869"
     inkscape:cy="78.848276"
     inkscape:window-x="0"
     inkscape:window-y="0"
     inkscape:window-maximized="0"
     inkscape:current-layer="svg2" />
  <g
     id="g4184">
    <path
       id="path8"
       d="m 145.62807,22.22294 0,57.600006 4.74755,0 7.36094,0 0.98281,0 0,-1.4375 -0.98281,0 0,-54.725005 0.98281,0 0,-1.437501 -0.98281,0 -7.36094,0 z m 8.50849,2.159376 c 1.92,0 1.92,2.88125 0,2.88125 -1.92,0 -1.92,-2.88125 0,-2.88125 z m 0,7.2 c 1.92,0 1.92,2.881251 0,2.881251 -1.92,0 -1.92,-2.881251 0,-2.881251 z m 0,7.200001 c 1.91928,7.15e-4 1.91928,2.880536 0,2.88125 -1.92072,7.16e-4 -1.92072,-2.881966 0,-2.88125 z m 0,7.200001 c 1.91928,7.14e-4 1.91928,2.880536 0,2.88125 -1.92072,7.16e-4 -1.92072,-2.881966 0,-2.88125 z m 0,7.200001 c 1.92,0 1.92,2.88125 0,2.88125 -1.92,0 -1.92,-2.88125 0,-2.88125 z m 0,7.2 c 1.92072,-7.16e-4 1.92072,2.881966 0,2.88125 -1.92072,7.16e-4 -1.92072,-2.881966 0,-2.88125 z m 0,7.200001 c 1.92072,-7.16e-4 1.92072,2.881966 0,2.88125 -1.92072,7.16e-4 -1.92072,-2.881966 0,-2.88125 z m 0,7.200001 c 1.92,0 1.92,2.88125 0,2.88125 -1.92,0 -1.92,-2.88125 0,-2.88125 z"
       style="fill:#e6e6e6;stroke:none;stroke-width:0"
       inkscape:connector-curvature="0"
       sodipodi:nodetypes="cccccccccccccsssssssssssssssccccccsss" />
    <ellipse
       ry="2.0519998"
       rx="2.0520003"
       transform="matrix(0,-1,1,0,0,0)"
       id="connector8pin"
       connectorname="GND"
       cx="-76.222946"
       cy="154.13655"
       style="fill:none;stroke:#9a916c;stroke-width:1.22399998" />
    <ellipse
       ry="2.0519998"
       rx="2.0520003"
       transform="matrix(0,-1,1,0,0,0)"
       id="connector9pin"
       connectorname="VCC"
       cx="-69.022942"
       cy="154.13655"
       style="fill:none;stroke:#9a916c;stroke-width:1.22399998" />
    <ellipse
       ry="2.0519998"
       rx="2.0520003"
       transform="matrix(0,-1,1,0,0,0)"
       id="connector10pin"
       connectorname="SCL"
       cx="-61.822941"
       cy="154.13655"
       style="fill:none;stroke:#9a916c;stroke-width:1.22399998" />
    <ellipse
       ry="2.0519998"
       rx="2.0520003"
       transform="matrix(0,-1,1,0,0,0)"
       id="connector11pin"
       connectorname="SDA"
       cx="-54.62294"
       cy="154.13655"
       style="fill:none;stroke:#9a916c;stroke-width:1.22399998" />
    <ellipse
       ry="2.0519998"
       rx="2.0520003"
       transform="matrix(0,-1,1,0,0,0)"
       id="connector12pin"
       connectorname="SDO"
       cx="-47.422939"
       cy="154.13655"
       style="fill:none;stroke:#9a916c;stroke-width:1.22399998" />
    <ellipse
       ry="2.0519998"
       rx="2.0520003"
       transform="matrix(0,-1,1,0,0,0)"
       id="connector13pin"
       connectorname="CS"
       cx="-40.222942"
       cy="154.13655"
       style="fill:none;stroke:#9a916c;stroke-width:1.22399998" />
    <ellipse
       ry="2.0519998"
       rx="2.0520003"
       transform="matrix(0,-1,1,0,0,0)"
       id="connector14pin"
       connectorname="INT2"
       cx="-33.022942"
       cy="154.13655"
       style="fill:none;stroke:#9a916c;stroke-width:1.22399998" />
    <ellipse
       ry="2.0519998"
       rx="2.0520003"
       transform="matrix(0,-1,1,0,0,0)"
       id="connector15pin"
       connectorname="INT1"
       cx="-25.822939"
       cy="154.13655"
       style="fill:none;stroke:#9a916c;stroke-width:1.22399998" />
    <g
       style="fill:#ffffff"
       transform="matrix(0.72202274,0,0,0.72202281,-818.62972,-890.90827)"
       id="g4744">
      <path
         inkscape:connector-curvature="0"
         id="path4675"
         style="font-style:normal;font-weight:normal;font-size:medium;line-height:125%;font-family:sans-serif;letter-spacing:0px;word-spacing:0px;fill:#ffffff;fill-opacity:1;stroke:none;stroke-width:1px;stroke-linecap:butt;stroke-linejoin:miter;stroke-opacity:1"
         d="m 1315.6605,1269.7796 0,1.8506 1.0961,0 q 0.5515,0 0.8153,-0.2267 0.2673,-0.23 0.2673,-0.7003 0,-0.4736 -0.2673,-0.6969 -0.2638,-0.2267 -0.8153,-0.2267 l -1.0961,0 z m 0,-2.0772 0,1.5224 1.0115,0 q 0.5007,0 0.7443,-0.1861 0.247,-0.1894 0.247,-0.5751 0,-0.3823 -0.247,-0.5717 -0.2436,-0.1895 -0.7443,-0.1895 l -1.0115,0 z m -0.6834,-0.5616 1.7457,0 q 0.7815,0 1.2044,0.3248 0.4228,0.3248 0.4228,0.9236 0,0.4635 -0.2165,0.7375 -0.2165,0.274 -0.636,0.3417 0.5041,0.1083 0.7815,0.4533 0.2808,0.3417 0.2808,0.8559 0,0.6767 -0.4601,1.0454 -0.4601,0.3688 -1.3093,0.3688 l -1.8133,0 0,-5.051 z" />
      <path
         inkscape:connector-curvature="0"
         id="path4677"
         style="font-style:normal;font-weight:normal;font-size:medium;line-height:125%;font-family:sans-serif;letter-spacing:0px;word-spacing:0px;fill:#ffffff;fill-opacity:1;stroke:none;stroke-width:1px;stroke-linecap:butt;stroke-linejoin:miter;stroke-opacity:1"
         d="m 1319.6491,1267.1408 0.6868,0 0,3.0685 q 0,0.8119 0.2943,1.1705 0.2944,0.3553 0.9541,0.3553 0.6563,0 0.9506,-0.3553 0.2943,-0.3586 0.2943,-1.1705 l 0,-3.0685 0.6868,0 0,3.1531 q 0,0.9878 -0.4905,1.4919 -0.4872,0.5041 -1.4412,0.5041 -0.9574,0 -1.448,-0.5041 -0.4872,-0.5041 -0.4872,-1.4919 l 0,-3.1531 z" />
      <path
         inkscape:connector-curvature="0"
         id="path4679"
         style="font-style:normal;font-weight:normal;font-size:medium;line-height:125%;font-family:sans-serif;letter-spacing:0px;word-spacing:0px;fill:#ffffff;fill-opacity:1;stroke:none;stroke-width:1px;stroke-linecap:butt;stroke-linejoin:miter;stroke-opacity:1"
         d="m 1327.8294,1267.3066 0,0.6665 q -0.389,-0.1861 -0.7341,-0.2774 -0.3451,-0.091 -0.6665,-0.091 -0.5582,0 -0.8627,0.2165 -0.301,0.2166 -0.301,0.6158 0,0.3349 0.1996,0.5074 0.2029,0.1692 0.7645,0.274 l 0.4128,0.085 q 0.7645,0.1455 1.1265,0.5143 0.3654,0.3653 0.3654,0.981 0,0.7342 -0.4939,1.1131 -0.4906,0.3789 -1.4412,0.3789 -0.3586,0 -0.7646,-0.081 -0.4026,-0.081 -0.8356,-0.2402 l 0,-0.7037 q 0.4161,0.2334 0.8153,0.3518 0.3992,0.1185 0.7849,0.1185 0.5853,0 0.9033,-0.2301 0.318,-0.23 0.318,-0.6563 0,-0.3721 -0.2301,-0.5819 -0.2266,-0.2097 -0.7476,-0.3146 l -0.4162,-0.081 q -0.7645,-0.1523 -1.1062,-0.477 -0.3417,-0.3248 -0.3417,-0.9033 0,-0.6699 0.4702,-1.0555 0.4737,-0.3857 1.3025,-0.3857 0.3552,0 0.724,0.064 0.3688,0.064 0.7544,0.1928 z" />
      <path
         inkscape:connector-curvature="0"
         id="path4681"
         style="font-style:normal;font-weight:normal;font-size:medium;line-height:125%;font-family:sans-serif;letter-spacing:0px;word-spacing:0px;fill:#ffffff;fill-opacity:1;stroke:none;stroke-width:1px;stroke-linecap:butt;stroke-linejoin:miter;stroke-opacity:1"
         d="m 1328.5196,1267.1408 0.7341,0 1.4006,2.0772 1.3904,-2.0772 0.7342,0 -1.7863,2.6456 0,2.4054 -0.6868,0 0,-2.4054 -1.7862,-2.6456 z" />
    </g>
    <g
       style="fill:#ffffff"
       transform="matrix(0.72202274,0,0,0.72202281,-816.82457,-892.47557)"
       id="g4750">
      <path
         inkscape:connector-curvature="0"
         id="path4683"
         style="font-style:normal;font-weight:normal;font-size:medium;line-height:125%;font-family:sans-serif;letter-spacing:0px;word-spacing:0px;fill:#ffffff;fill-opacity:1;stroke:none;stroke-width:1px;stroke-linecap:butt;stroke-linejoin:miter;stroke-opacity:1"
         d="m 1317.3723,1281.9664 q 0.2199,0.074 0.4263,0.318 0.2098,0.2436 0.4195,0.6699 l 0.6935,1.3802 -0.7341,0 -0.6462,-1.2957 q -0.2503,-0.5074 -0.4871,-0.6732 -0.2335,-0.1658 -0.6394,-0.1658 l -0.7443,0 0,2.1347 -0.6834,0 0,-5.0509 1.5427,0 q 0.8661,0 1.2923,0.362 0.4263,0.362 0.4263,1.0927 0,0.4771 -0.2233,0.7917 -0.2199,0.3146 -0.6428,0.4364 z m -1.7118,-2.1212 0,1.793 0.8593,0 q 0.4939,0 0.7443,-0.2266 0.2537,-0.2301 0.2537,-0.6733 0,-0.4431 -0.2537,-0.6664 -0.2504,-0.2267 -0.7443,-0.2267 l -0.8593,0 z" />
      <path
         inkscape:connector-curvature="0"
         id="path4685"
         style="font-style:normal;font-weight:normal;font-size:medium;line-height:125%;font-family:sans-serif;letter-spacing:0px;word-spacing:0px;fill:#ffffff;fill-opacity:1;stroke:none;stroke-width:1px;stroke-linecap:butt;stroke-linejoin:miter;stroke-opacity:1"
         d="m 1322.8225,1279.4494 0,0.6665 q -0.3891,-0.1861 -0.7342,-0.2775 -0.345,-0.091 -0.6664,-0.091 -0.5582,0 -0.8627,0.2165 -0.3011,0.2165 -0.3011,0.6157 0,0.335 0.1996,0.5075 0.203,0.1691 0.7646,0.274 l 0.4127,0.085 q 0.7646,0.1455 1.1266,0.5142 0.3653,0.3654 0.3653,0.9811 0,0.7341 -0.4939,1.1131 -0.4905,0.3789 -1.4412,0.3789 -0.3586,0 -0.7645,-0.081 -0.4026,-0.081 -0.8357,-0.2402 l 0,-0.7037 q 0.4162,0.2334 0.8154,0.3518 0.3992,0.1184 0.7848,0.1184 0.5853,0 0.9033,-0.23 0.318,-0.2301 0.318,-0.6563 0,-0.3722 -0.23,-0.5819 -0.2267,-0.2098 -0.7477,-0.3146 l -0.4161,-0.081 q -0.7646,-0.1523 -1.1063,-0.4771 -0.3417,-0.3247 -0.3417,-0.9032 0,-0.6699 0.4703,-1.0556 0.4736,-0.3856 1.3025,-0.3856 0.3552,0 0.7239,0.064 0.3688,0.064 0.7545,0.1928 z" />
      <path
         inkscape:connector-curvature="0"
         id="path4687"
         style="font-style:normal;font-weight:normal;font-size:medium;line-height:125%;font-family:sans-serif;letter-spacing:0px;word-spacing:0px;fill:#ffffff;fill-opacity:1;stroke:none;stroke-width:1px;stroke-linecap:butt;stroke-linejoin:miter;stroke-opacity:1"
         d="m 1323.5059,1279.2836 4.2728,0 0,0.5751 -1.7931,0 0,4.4758 -0.6867,0 0,-4.4758 -1.793,0 0,-0.5751 z" />
    </g>
    <g
       style="fill:#ffffff"
       transform="matrix(0.72202274,0,0,0.72202281,-815.49335,-893.84887)"
       id="g4755">
      <path
         inkscape:connector-curvature="0"
         id="path4689"
         style="font-style:normal;font-weight:normal;font-size:medium;line-height:125%;font-family:sans-serif;letter-spacing:0px;word-spacing:0px;fill:#ffffff;fill-opacity:1;stroke:none;stroke-width:1px;stroke-linecap:butt;stroke-linejoin:miter;stroke-opacity:1"
         d="m 1315.6605,1291.7202 0,3.9277 0.8255,0 q 1.0453,0 1.5291,-0.4736 0.4872,-0.4736 0.4872,-1.4953 0,-1.015 -0.4872,-1.4852 -0.4838,-0.4736 -1.5291,-0.4736 l -0.8255,0 z m -0.6834,-0.5616 1.404,0 q 1.4682,0 2.155,0.6123 0.6868,0.609 0.6868,1.9081 0,1.3058 -0.6902,1.9182 -0.6901,0.6123 -2.1516,0.6123 l -1.404,0 0,-5.0509 z" />
      <path
         inkscape:connector-curvature="0"
         id="path4691"
         style="font-style:normal;font-weight:normal;font-size:medium;line-height:125%;font-family:sans-serif;letter-spacing:0px;word-spacing:0px;fill:#ffffff;fill-opacity:1;stroke:none;stroke-width:1px;stroke-linecap:butt;stroke-linejoin:miter;stroke-opacity:1"
         d="m 1324.0911,1291.5476 0,0.7206 q -0.3451,-0.3214 -0.7375,-0.4804 -0.389,-0.159 -0.8288,-0.159 -0.8661,0 -1.3262,0.5312 -0.4601,0.5277 -0.4601,1.5291 0,0.998 0.4601,1.5292 0.4601,0.5277 1.3262,0.5277 0.4398,0 0.8288,-0.159 0.3924,-0.159 0.7375,-0.4804 l 0,0.7139 q -0.3586,0.2435 -0.7612,0.3653 -0.3992,0.1218 -0.8457,0.1218 -1.1469,0 -1.8066,-0.7003 -0.6597,-0.7037 -0.6597,-1.9182 0,-1.2179 0.6597,-1.9182 0.6597,-0.7037 1.8066,-0.7037 0.4533,0 0.8525,0.1218 0.4026,0.1184 0.7544,0.3586 z" />
    </g>
    <g
       style="fill:#ffffff"
       transform="matrix(0.72202274,0,0,0.72202281,-815.05002,-894.32065)"
       id="g4759">
      <path
         inkscape:connector-curvature="0"
         id="path4693"
         style="font-style:normal;font-weight:normal;font-size:medium;line-height:125%;font-family:sans-serif;letter-spacing:0px;word-spacing:0px;fill:#ffffff;fill-opacity:1;stroke:none;stroke-width:1px;stroke-linecap:butt;stroke-linejoin:miter;stroke-opacity:1"
         d="m 1318.7594,1302.1726 0,0.7206 q -0.3451,-0.3214 -0.7375,-0.4804 -0.3891,-0.159 -0.8289,-0.159 -0.866,0 -1.3261,0.5311 -0.4601,0.5278 -0.4601,1.5292 0,0.998 0.4601,1.5291 0.4601,0.5278 1.3261,0.5278 0.4398,0 0.8289,-0.159 0.3924,-0.159 0.7375,-0.4804 l 0,0.7138 q -0.3586,0.2436 -0.7612,0.3654 -0.3992,0.1218 -0.8458,0.1218 -1.1468,0 -1.8065,-0.7003 -0.6597,-0.7037 -0.6597,-1.9182 0,-1.2179 0.6597,-1.9182 0.6597,-0.7037 1.8065,-0.7037 0.4534,0 0.8526,0.1218 0.4026,0.1184 0.7544,0.3586 z" />
      <path
         inkscape:connector-curvature="0"
         id="path4695"
         style="font-style:normal;font-weight:normal;font-size:medium;line-height:125%;font-family:sans-serif;letter-spacing:0px;word-spacing:0px;fill:#ffffff;fill-opacity:1;stroke:none;stroke-width:1px;stroke-linecap:butt;stroke-linejoin:miter;stroke-opacity:1"
         d="m 1322.8495,1301.9493 0,0.6665 q -0.389,-0.1861 -0.7341,-0.2774 -0.3451,-0.091 -0.6665,-0.091 -0.5582,0 -0.8626,0.2165 -0.3011,0.2165 -0.3011,0.6158 0,0.3349 0.1996,0.5074 0.2029,0.1692 0.7645,0.274 l 0.4128,0.085 q 0.7645,0.1455 1.1265,0.5142 0.3654,0.3654 0.3654,0.9811 0,0.7342 -0.4939,1.1131 -0.4906,0.3789 -1.4412,0.3789 -0.3586,0 -0.7646,-0.081 -0.4026,-0.081 -0.8356,-0.2402 l 0,-0.7037 q 0.4161,0.2334 0.8153,0.3518 0.3992,0.1184 0.7849,0.1184 0.5853,0 0.9033,-0.23 0.318,-0.23 0.318,-0.6563 0,-0.3722 -0.2301,-0.5819 -0.2266,-0.2098 -0.7476,-0.3146 l -0.4161,-0.081 q -0.7646,-0.1523 -1.1063,-0.477 -0.3417,-0.3248 -0.3417,-0.9033 0,-0.6699 0.4702,-1.0555 0.4737,-0.3857 1.3025,-0.3857 0.3553,0 0.724,0.064 0.3688,0.064 0.7544,0.1928 z" />
    </g>
    <g
       style="fill:#ffffff"
       transform="matrix(0.72202274,0,0,0.72202281,-816.68667,-893.37355)"
       id="g4763">
      <path
         inkscape:connector-curvature="0"
         id="path4697"
         style="font-style:normal;font-weight:normal;font-size:medium;line-height:125%;font-family:sans-serif;letter-spacing:0px;word-spacing:0px;fill:#ffffff;fill-opacity:1;stroke:none;stroke-width:1px;stroke-linecap:butt;stroke-linejoin:miter;stroke-opacity:1"
         d="m 1318.7594,1310.8333 0,0.7206 q -0.3451,-0.3214 -0.7375,-0.4804 -0.3891,-0.159 -0.8289,-0.159 -0.866,0 -1.3261,0.5311 -0.4601,0.5278 -0.4601,1.5291 0,0.9981 0.4601,1.5292 0.4601,0.5278 1.3261,0.5278 0.4398,0 0.8289,-0.159 0.3924,-0.1591 0.7375,-0.4804 l 0,0.7138 q -0.3586,0.2436 -0.7612,0.3654 -0.3992,0.1217 -0.8458,0.1217 -1.1468,0 -1.8065,-0.7003 -0.6597,-0.7036 -0.6597,-1.9182 0,-1.2179 0.6597,-1.9182 0.6597,-0.7036 1.8065,-0.7036 0.4534,0 0.8526,0.1218 0.4026,0.1184 0.7544,0.3586 z" />
      <path
         inkscape:connector-curvature="0"
         id="path4699"
         style="font-style:normal;font-weight:normal;font-size:medium;line-height:125%;font-family:sans-serif;letter-spacing:0px;word-spacing:0px;fill:#ffffff;fill-opacity:1;stroke:none;stroke-width:1px;stroke-linecap:butt;stroke-linejoin:miter;stroke-opacity:1"
         d="m 1319.8217,1310.4442 0.6834,0 0,4.4758 2.4595,0 0,0.5751 -3.1429,0 0,-5.0509 z" />
      <path
         inkscape:connector-curvature="0"
         id="path4701"
         style="font-style:normal;font-weight:normal;font-size:medium;line-height:125%;font-family:sans-serif;letter-spacing:0px;word-spacing:0px;fill:#ffffff;fill-opacity:1;stroke:none;stroke-width:1px;stroke-linecap:butt;stroke-linejoin:miter;stroke-opacity:1"
         d="m 1323.6784,1310.4442 0.6834,0 0,2.1347 2.2666,-2.1347 0.8796,0 -2.5068,2.3546 2.6861,2.6963 -0.8999,0 -2.4256,-2.4324 0,2.4324 -0.6834,0 0,-5.0509 z" />
    </g>
    <g
       style="fill:#ffffff"
       transform="matrix(0.72202274,0,0,0.72202281,-816.24569,-892.42432)"
       id="g4768">
      <path
         inkscape:connector-curvature="0"
         id="path4703"
         style="font-style:normal;font-weight:normal;font-size:medium;line-height:125%;font-family:sans-serif;letter-spacing:0px;word-spacing:0px;fill:#ffffff;fill-opacity:1;stroke:none;stroke-width:1px;stroke-linecap:butt;stroke-linejoin:miter;stroke-opacity:1"
         d="m 1315.6605,1319.6665 0,3.9277 0.8255,0 q 1.0453,0 1.5291,-0.4736 0.4872,-0.4736 0.4872,-1.4953 0,-1.015 -0.4872,-1.4852 -0.4838,-0.4736 -1.5291,-0.4736 l -0.8255,0 z m -0.6834,-0.5616 1.404,0 q 1.4682,0 2.155,0.6123 0.6868,0.609 0.6868,1.9081 0,1.3058 -0.6902,1.9182 -0.6901,0.6123 -2.1516,0.6123 l -1.404,0 0,-5.0509 z" />
      <path
         inkscape:connector-curvature="0"
         id="path4705"
         style="font-style:normal;font-weight:normal;font-size:medium;line-height:125%;font-family:sans-serif;letter-spacing:0px;word-spacing:0px;fill:#ffffff;fill-opacity:1;stroke:none;stroke-width:1px;stroke-linecap:butt;stroke-linejoin:miter;stroke-opacity:1"
         d="m 1320.3088,1319.1049 0.6834,0 0,5.0509 -0.6834,0 0,-5.0509 z" />
      <path
         inkscape:connector-curvature="0"
         id="path4707"
         style="font-style:normal;font-weight:normal;font-size:medium;line-height:125%;font-family:sans-serif;letter-spacing:0px;word-spacing:0px;fill:#ffffff;fill-opacity:1;stroke:none;stroke-width:1px;stroke-linecap:butt;stroke-linejoin:miter;stroke-opacity:1"
         d="m 1322.3522,1319.1049 0.9202,0 2.2396,4.2254 0,-4.2254 0.6631,0 0,5.0509 -0.9202,0 -2.2396,-4.2255 0,4.2255 -0.6631,0 0,-5.0509 z" />
    </g>
    <g
       style="fill:#ffffff"
       transform="matrix(0.72202274,0,0,0.72202281,-817.44145,-891.47996)"
       id="g4773">
      <path
         inkscape:connector-curvature="0"
         id="path4709"
         style="font-style:normal;font-weight:normal;font-size:medium;line-height:125%;font-family:sans-serif;letter-spacing:0px;word-spacing:0px;fill:#ffffff;fill-opacity:1;stroke:none;stroke-width:1px;stroke-linecap:butt;stroke-linejoin:miter;stroke-opacity:1"
         d="m 1318.4211,1332.0959 0,-1.3566 -1.1164,0 0,-0.5616 1.793,0 0,2.1685 q -0.3958,0.2808 -0.8728,0.4263 -0.477,0.1421 -1.0183,0.1421 -1.1841,0 -1.854,-0.6902 -0.6664,-0.6935 -0.6664,-1.9283 0,-1.2382 0.6664,-1.9284 0.6699,-0.6935 1.854,-0.6935 0.4939,0 0.9371,0.1218 0.4465,0.1218 0.8221,0.3586 l 0,0.7274 q -0.3789,-0.3214 -0.8052,-0.4838 -0.4263,-0.1624 -0.8965,-0.1624 -0.927,0 -1.3939,0.5176 -0.4634,0.5176 -0.4634,1.5427 0,1.0217 0.4634,1.5393 0.4669,0.5176 1.3939,0.5176 0.362,0 0.6461,-0.061 0.2842,-0.064 0.5109,-0.1962 z" />
      <path
         inkscape:connector-curvature="0"
         id="path4711"
         style="font-style:normal;font-weight:normal;font-size:medium;line-height:125%;font-family:sans-serif;letter-spacing:0px;word-spacing:0px;fill:#ffffff;fill-opacity:1;stroke:none;stroke-width:1px;stroke-linecap:butt;stroke-linejoin:miter;stroke-opacity:1"
         d="m 1320.3494,1327.7656 0.9202,0 2.2396,4.2254 0,-4.2254 0.6631,0 0,5.0509 -0.9202,0 -2.2396,-4.2255 0,4.2255 -0.6631,0 0,-5.0509 z" />
      <path
         inkscape:connector-curvature="0"
         id="path4713"
         style="font-style:normal;font-weight:normal;font-size:medium;line-height:125%;font-family:sans-serif;letter-spacing:0px;word-spacing:0px;fill:#ffffff;fill-opacity:1;stroke:none;stroke-width:1px;stroke-linecap:butt;stroke-linejoin:miter;stroke-opacity:1"
         d="m 1326.2157,1328.3271 0,3.9278 0.8255,0 q 1.0453,0 1.5291,-0.4736 0.4872,-0.4737 0.4872,-1.4954 0,-1.0149 -0.4872,-1.4851 -0.4838,-0.4737 -1.5291,-0.4737 l -0.8255,0 z m -0.6834,-0.5615 1.404,0 q 1.4682,0 2.155,0.6123 0.6868,0.6089 0.6868,1.908 0,1.3059 -0.6902,1.9182 -0.6901,0.6124 -2.1516,0.6124 l -1.404,0 0,-5.0509 z" />
    </g>
    <g
       style="fill:#ffffff"
       transform="matrix(0.72202274,0,0,0.72202281,-816.80147,-890.53318)"
       id="g4778">
      <path
         inkscape:connector-curvature="0"
         id="path4715"
         style="font-style:normal;font-weight:normal;font-size:medium;line-height:125%;font-family:sans-serif;letter-spacing:0px;word-spacing:0px;fill:#ffffff;fill-opacity:1;stroke:none;stroke-width:1px;stroke-linecap:butt;stroke-linejoin:miter;stroke-opacity:1"
         d="m 1316.2796,1341.4772 -1.9284,-5.051 0.7139,0 1.6002,4.2525 1.6035,-4.2525 0.7105,0 -1.925,5.051 -0.7747,0 z" />
      <path
         inkscape:connector-curvature="0"
         id="path4717"
         style="font-style:normal;font-weight:normal;font-size:medium;line-height:125%;font-family:sans-serif;letter-spacing:0px;word-spacing:0px;fill:#ffffff;fill-opacity:1;stroke:none;stroke-width:1px;stroke-linecap:butt;stroke-linejoin:miter;stroke-opacity:1"
         d="m 1323.4957,1336.8153 0,0.7206 q -0.3451,-0.3214 -0.7375,-0.4804 -0.3891,-0.159 -0.8289,-0.159 -0.866,0 -1.3261,0.5311 -0.4601,0.5278 -0.4601,1.5292 0,0.998 0.4601,1.5291 0.4601,0.5278 1.3261,0.5278 0.4398,0 0.8289,-0.159 0.3924,-0.159 0.7375,-0.4804 l 0,0.7138 q -0.3586,0.2436 -0.7612,0.3654 -0.3992,0.1218 -0.8458,0.1218 -1.1468,0 -1.8065,-0.7003 -0.6597,-0.7037 -0.6597,-1.9182 0,-1.2179 0.6597,-1.9182 0.6597,-0.7037 1.8065,-0.7037 0.4534,0 0.8526,0.1218 0.4026,0.1184 0.7544,0.3586 z" />
      <path
         inkscape:connector-curvature="0"
         id="path4719"
         style="font-style:normal;font-weight:normal;font-size:medium;line-height:125%;font-family:sans-serif;letter-spacing:0px;word-spacing:0px;fill:#ffffff;fill-opacity:1;stroke:none;stroke-width:1px;stroke-linecap:butt;stroke-linejoin:miter;stroke-opacity:1"
         d="m 1328.3403,1336.8153 0,0.7206 q -0.3451,-0.3214 -0.7375,-0.4804 -0.3891,-0.159 -0.8289,-0.159 -0.8661,0 -1.3262,0.5311 -0.4601,0.5278 -0.4601,1.5292 0,0.998 0.4601,1.5291 0.4601,0.5278 1.3262,0.5278 0.4398,0 0.8289,-0.159 0.3924,-0.159 0.7375,-0.4804 l 0,0.7138 q -0.3586,0.2436 -0.7612,0.3654 -0.3992,0.1218 -0.8458,0.1218 -1.1469,0 -1.8066,-0.7003 -0.6597,-0.7037 -0.6597,-1.9182 0,-1.2179 0.6597,-1.9182 0.6597,-0.7037 1.8066,-0.7037 0.4533,0 0.8525,0.1218 0.4026,0.1184 0.7545,0.3586 z" />
    </g>
  </g>
</svg>
